<svg id="svg" version="1.1" xmlns="http://www.w3.org/2000/svg" xmlns:xlink="http://www.w3.org/1999/xlink" width="400" height="65.33333333333334" viewBox="0, 0, 400,65.33333333333334"><g id="svgg"><path id="path0" d="M11.288 25.856 C 11.492 25.962,11.707 26.206,11.765 26.399 C 12.435 28.623,14.483 30.025,17.217 30.133 L 19.018 30.204 18.906 30.727 C 18.673 31.813,18.536 31.907,18.007 31.341 L 17.533 30.833 15.024 30.833 C 11.551 30.833,11.285 30.990,11.745 32.758 C 12.170 34.388,14.028 36.167,15.307 36.167 C 15.464 36.167,15.749 36.276,15.939 36.410 C 16.130 36.543,16.786 36.704,17.398 36.766 C 18.598 36.889,18.820 37.031,18.473 37.451 C 18.273 37.694,18.288 37.701,18.625 37.521 C 19.550 37.028,19.108 36.731,16.583 36.149 C 15.667 35.938,14.804 35.677,14.667 35.569 C 14.529 35.461,14.267 35.324,14.083 35.265 C 13.079 34.942,12.156 33.584,12.115 32.369 L 12.083 31.417 14.833 31.369 L 17.583 31.322 17.948 31.776 C 18.415 32.357,19.167 32.130,19.167 31.409 C 19.167 30.527,19.418 30.333,20.563 30.333 C 21.702 30.333,22.167 30.055,22.167 29.376 C 22.167 28.413,21.723 28.261,20.833 28.917 C 20.523 29.146,20.147 29.333,19.999 29.333 C 19.851 29.333,19.585 29.443,19.407 29.578 C 17.978 30.659,13.264 29.139,12.728 27.425 C 12.669 27.237,12.451 26.880,12.243 26.631 C 12.035 26.382,11.839 26.111,11.808 26.028 C 11.776 25.945,11.563 25.830,11.333 25.771 C 10.928 25.668,10.926 25.670,11.288 25.856 M29.367 25.780 C 29.523 25.821,29.697 26.000,29.753 26.178 C 29.810 26.355,30.001 26.578,30.178 26.673 C 30.355 26.768,30.500 26.939,30.500 27.054 C 30.500 27.493,32.071 28.842,33.167 29.345 C 33.396 29.450,33.733 29.615,33.917 29.712 C 34.100 29.809,34.578 29.972,34.978 30.075 L 35.706 30.261 35.677 33.669 C 35.653 36.566,35.607 37.123,35.375 37.379 C 35.121 37.660,35.122 37.673,35.397 37.568 C 35.901 37.375,36.000 36.742,36.000 33.728 C 36.000 32.124,36.073 30.674,36.163 30.507 C 36.379 30.104,36.206 29.988,34.667 29.507 C 33.030 28.994,32.182 28.492,31.337 27.534 C 30.129 26.164,29.590 25.668,29.333 25.687 C 29.147 25.701,29.156 25.725,29.367 25.780 M45.833 25.780 C 45.696 25.821,45.358 26.153,45.083 26.516 C 44.007 27.939,43.786 28.175,43.074 28.656 C 42.669 28.929,42.036 29.234,41.669 29.333 C 40.945 29.528,40.798 29.880,41.322 30.161 C 41.507 30.260,42.816 30.333,44.388 30.333 C 47.523 30.333,47.333 30.231,47.333 31.917 C 47.333 33.612,47.565 33.500,44.066 33.500 C 40.287 33.500,40.333 33.475,40.333 35.482 C 40.333 37.525,40.241 37.475,44.120 37.534 C 45.882 37.561,47.195 37.532,47.037 37.470 C 46.879 37.408,45.454 37.351,43.871 37.345 L 40.992 37.333 40.829 36.906 C 40.650 36.433,40.609 34.678,40.768 34.264 C 40.855 34.036,41.298 34.000,43.997 34.000 C 47.748 34.000,47.583 34.091,47.583 32.016 C 47.583 29.887,47.717 30.000,45.193 30.000 C 44.010 30.000,42.807 29.953,42.521 29.896 C 41.980 29.788,41.797 29.500,42.270 29.500 C 42.781 29.500,43.953 28.582,44.684 27.608 C 45.087 27.072,45.631 26.415,45.893 26.150 C 46.357 25.679,46.348 25.626,45.833 25.780 M53.742 26.076 C 53.382 26.437,53.333 26.631,53.333 27.722 C 53.333 29.388,53.406 29.351,50.228 29.296 L 47.583 29.250 47.495 27.833 C 47.360 25.686,47.058 25.445,47.130 27.543 C 47.186 29.170,47.210 29.270,47.657 29.667 C 47.947 29.925,48.227 30.438,48.394 31.020 C 48.542 31.535,48.777 32.050,48.915 32.165 C 49.053 32.280,49.167 32.503,49.167 32.662 C 49.167 32.820,49.317 33.122,49.500 33.333 C 49.683 33.545,49.833 33.809,49.833 33.920 C 49.833 34.031,49.983 34.312,50.167 34.545 C 50.350 34.779,50.500 35.079,50.500 35.212 C 50.500 35.346,50.647 35.643,50.828 35.872 C 51.008 36.101,51.205 36.599,51.266 36.978 C 51.382 37.707,51.667 37.928,51.667 37.288 C 51.667 36.961,49.820 33.133,48.897 31.545 C 48.337 30.583,48.617 30.424,50.964 30.370 L 52.975 30.323 53.384 30.870 C 53.609 31.171,54.186 32.317,54.666 33.417 C 55.146 34.517,55.597 35.480,55.668 35.557 C 55.886 35.793,56.490 35.351,56.606 34.870 C 56.709 34.441,56.879 34.063,57.667 32.509 C 57.850 32.147,58.000 31.728,58.000 31.579 C 58.000 30.538,62.268 29.668,63.133 30.533 C 63.379 30.779,63.398 31.333,63.161 31.333 C 63.066 31.333,62.839 31.652,62.656 32.042 C 62.473 32.431,61.995 33.350,61.595 34.083 C 60.271 36.507,60.040 37.035,60.146 37.399 C 60.236 37.711,60.254 37.699,60.302 37.292 C 60.331 37.040,60.420 36.833,60.498 36.833 C 60.576 36.833,60.690 36.608,60.750 36.332 C 60.811 36.056,60.952 35.737,61.064 35.623 C 61.177 35.510,61.527 34.910,61.843 34.290 C 62.920 32.176,63.028 32.000,63.242 32.000 C 63.366 32.000,63.494 32.284,63.547 32.680 C 63.705 33.853,63.967 34.000,65.909 34.000 C 67.002 34.000,67.671 34.071,67.800 34.200 C 68.050 34.450,68.067 36.633,67.824 37.281 L 67.648 37.750 68.018 37.385 C 68.321 37.086,68.401 36.780,68.464 35.690 C 68.578 33.726,68.317 33.500,65.930 33.500 C 64.369 33.500,64.160 33.465,64.006 33.178 C 63.788 32.770,63.782 31.324,63.996 30.761 L 64.158 30.333 69.964 30.333 C 76.728 30.333,76.475 30.388,76.109 28.997 C 75.752 27.633,75.076 26.219,74.682 26.008 C 74.227 25.765,74.242 25.853,74.750 26.401 C 74.979 26.648,75.167 26.997,75.167 27.176 C 75.167 27.355,75.317 27.781,75.500 28.123 C 75.683 28.465,75.833 28.987,75.833 29.283 L 75.833 29.821 69.792 29.869 C 63.693 29.917,63.277 29.892,63.743 29.506 C 63.926 29.354,64.001 28.976,64.004 28.188 C 64.006 27.580,64.077 26.785,64.161 26.421 C 64.373 25.507,64.236 25.476,63.840 26.350 C 63.625 26.823,63.506 27.447,63.504 28.107 C 63.499 29.377,63.603 29.333,60.603 29.333 C 57.825 29.333,57.833 29.338,57.833 27.861 C 57.833 27.061,57.744 26.645,57.481 26.219 C 57.056 25.532,56.949 25.574,57.170 26.343 C 57.260 26.657,57.333 27.457,57.333 28.120 C 57.333 29.284,57.350 29.333,57.823 29.578 C 58.510 29.933,58.571 30.108,58.177 30.607 C 57.988 30.848,57.833 31.151,57.833 31.281 C 57.833 31.411,57.683 31.813,57.500 32.175 C 56.715 33.725,56.543 34.107,56.442 34.523 C 56.262 35.270,55.501 35.344,55.499 34.615 C 55.498 34.414,55.349 34.025,55.167 33.750 C 54.985 33.475,54.835 33.129,54.834 32.981 C 54.834 32.833,54.693 32.533,54.522 32.314 C 54.350 32.096,54.158 31.678,54.094 31.387 C 54.031 31.095,53.863 30.760,53.721 30.642 C 53.259 30.259,53.185 29.782,53.522 29.353 C 53.750 29.061,53.833 28.678,53.833 27.915 C 53.833 27.342,53.947 26.602,54.086 26.270 C 54.382 25.561,54.302 25.516,53.742 26.076 M76.333 25.898 C 76.333 26.415,76.906 27.135,79.066 29.334 C 81.970 32.290,82.015 31.870,78.502 34.667 C 75.851 36.777,75.060 37.667,75.833 37.667 C 75.925 37.667,76.000 37.547,76.000 37.400 C 76.000 37.128,76.919 36.167,77.178 36.167 C 77.257 36.167,77.402 36.017,77.500 35.833 C 77.598 35.650,77.785 35.500,77.914 35.500 C 78.044 35.500,78.210 35.405,78.283 35.289 C 78.357 35.173,78.810 34.783,79.292 34.422 C 79.773 34.060,80.167 33.705,80.167 33.632 C 80.167 33.560,80.245 33.500,80.342 33.500 C 80.698 33.500,81.667 32.382,81.667 31.971 C 81.667 31.669,81.135 31.015,79.680 29.527 C 77.131 26.922,76.833 26.560,76.833 26.071 C 76.833 25.823,76.737 25.667,76.583 25.667 C 76.446 25.667,76.333 25.771,76.333 25.898 M28.016 26.358 C 27.916 26.647,27.831 27.716,27.827 28.733 C 27.823 30.022,27.749 30.710,27.583 31.000 C 27.452 31.229,27.342 31.574,27.339 31.767 C 27.333 32.154,26.592 33.654,26.278 33.917 C 25.602 34.482,25.503 34.923,25.849 35.833 C 26.194 36.741,26.656 37.486,26.881 37.495 C 27.032 37.501,26.709 36.852,26.413 36.556 C 26.034 36.177,25.960 35.000,26.286 34.537 C 27.115 33.364,27.362 32.928,27.576 32.262 C 27.850 31.407,28.192 32.452,28.424 34.852 L 28.655 37.250 28.572 34.023 C 28.472 30.079,28.326 30.333,30.684 30.333 C 32.853 30.333,32.639 29.930,32.703 34.139 C 32.746 36.940,32.777 37.213,33.074 37.430 C 33.559 37.785,33.762 37.715,33.401 37.316 C 33.118 37.004,33.074 36.608,33.000 33.691 C 32.897 29.642,33.130 29.978,30.444 30.010 L 28.250 30.035 28.250 27.934 C 28.250 26.779,28.239 25.833,28.225 25.833 C 28.211 25.833,28.117 26.070,28.016 26.358 M94.219 28.645 C 93.897 28.869,93.329 30.051,93.224 30.717 C 93.164 31.102,92.968 31.699,92.789 32.043 C 92.087 33.399,92.887 33.995,93.840 32.825 C 94.492 32.025,94.992 31.992,95.190 32.736 C 95.354 33.352,95.585 33.494,96.425 33.497 C 97.311 33.501,97.500 33.278,97.500 32.226 C 97.500 31.512,97.568 31.305,97.870 31.093 C 98.421 30.707,98.500 30.764,98.500 31.545 C 98.500 32.477,99.117 33.415,99.824 33.556 C 100.897 33.771,101.792 33.331,101.620 32.674 C 101.573 32.493,101.639 32.259,101.767 32.152 C 102.228 31.770,101.747 30.472,100.959 29.971 C 100.506 29.683,99.670 29.827,99.296 30.257 L 98.928 30.680 98.668 30.336 C 98.268 29.805,97.314 29.723,96.496 30.149 C 95.710 30.559,95.500 30.498,95.500 29.861 C 95.500 29.080,94.694 28.316,94.219 28.645 M117.168 28.660 C 116.906 28.726,116.691 28.946,116.585 29.257 C 116.492 29.528,116.267 29.875,116.083 30.028 C 115.751 30.304,115.751 30.306,116.116 30.696 C 116.408 31.007,116.493 31.325,116.533 32.252 C 116.581 33.370,116.600 33.417,117.000 33.417 C 117.400 33.417,117.420 33.367,117.500 32.167 C 117.598 30.697,117.881 30.518,118.000 31.849 C 118.076 32.698,118.293 33.189,118.750 33.547 C 118.911 33.673,120.437 33.571,121.048 33.394 C 121.565 33.243,121.396 30.104,120.866 30.029 C 120.224 29.938,120.000 30.278,120.000 31.344 C 120.000 32.225,119.804 32.693,119.544 32.433 C 119.489 32.377,119.400 31.826,119.347 31.208 C 119.252 30.107,119.239 30.082,118.750 30.027 C 118.063 29.949,117.878 29.755,117.960 29.194 C 118.040 28.652,117.812 28.499,117.168 28.660 M151.757 28.957 C 151.171 29.588,151.197 30.000,151.823 30.000 C 152.471 30.000,152.619 30.281,152.184 30.686 C 151.810 31.035,151.716 31.816,152.014 32.114 C 152.143 32.243,152.136 32.388,151.987 32.625 C 151.547 33.331,152.478 33.879,153.016 33.231 C 153.207 33.001,153.186 32.919,152.873 32.666 C 152.512 32.373,152.729 31.333,153.152 31.333 C 153.222 31.333,153.365 31.146,153.470 30.917 C 153.681 30.452,154.173 30.381,155.168 30.668 C 155.779 30.845,156.655 30.160,156.660 29.500 C 156.668 28.423,154.464 28.287,154.303 29.355 C 154.254 29.683,154.203 29.664,153.592 29.104 C 152.806 28.382,152.326 28.343,151.757 28.957 M90.496 29.375 C 89.959 30.557,90.411 31.002,91.858 30.717 C 92.581 30.575,92.583 30.572,92.634 29.785 C 92.689 28.933,92.392 28.605,91.919 28.998 C 91.726 29.158,91.621 29.145,91.409 28.933 C 91.004 28.527,90.846 28.604,90.496 29.375 M122.678 28.979 C 122.580 29.162,122.500 29.398,122.500 29.504 C 122.500 29.610,122.331 29.833,122.125 30.001 L 121.750 30.305 122.125 30.705 C 122.437 31.038,122.500 31.293,122.500 32.228 L 122.500 33.350 123.118 33.609 C 123.710 33.856,123.749 33.852,124.032 33.502 C 124.309 33.160,124.345 33.155,124.608 33.418 C 124.880 33.689,126.071 33.678,127.048 33.394 C 127.565 33.243,127.396 30.104,126.866 30.029 C 126.224 29.938,126.000 30.278,126.000 31.344 C 126.000 32.225,125.804 32.693,125.544 32.433 C 125.489 32.377,125.400 31.827,125.347 31.209 L 125.250 30.086 124.442 29.971 C 123.998 29.908,123.620 29.832,123.602 29.803 C 123.584 29.774,123.498 29.531,123.410 29.264 C 123.211 28.659,122.912 28.542,122.678 28.979 M147.203 29.208 C 147.075 29.703,146.995 29.758,146.279 29.841 C 145.728 29.905,145.419 30.042,145.238 30.300 C 144.901 30.780,144.294 30.776,144.081 30.292 C 143.777 29.597,142.108 29.694,141.832 30.421 C 141.623 30.970,141.234 30.941,140.667 30.333 C 140.049 29.672,139.167 29.639,138.630 30.257 L 138.262 30.680 137.974 30.298 C 137.601 29.804,136.180 29.749,135.717 30.211 C 135.166 30.762,135.189 32.898,135.749 33.265 C 136.422 33.705,136.731 33.425,136.835 32.281 C 136.896 31.610,137.013 31.275,137.251 31.095 C 137.756 30.713,137.833 30.773,137.833 31.545 C 137.833 33.204,139.903 34.371,140.842 33.240 C 140.991 33.060,141.119 33.077,141.541 33.334 C 142.139 33.698,143.967 33.637,144.616 33.232 C 144.850 33.086,145.020 33.064,145.086 33.171 C 145.278 33.481,146.379 33.854,146.563 33.670 C 146.657 33.577,147.010 33.500,147.349 33.500 C 148.031 33.500,148.167 33.318,148.167 32.403 C 148.167 31.640,148.431 31.677,148.560 32.458 C 148.729 33.482,148.687 33.667,148.250 33.833 C 147.487 34.123,147.850 34.833,148.761 34.833 C 149.344 34.833,150.167 33.889,150.167 33.220 C 150.167 33.030,150.277 32.782,150.412 32.670 C 150.547 32.558,150.702 32.193,150.755 31.858 C 150.808 31.524,150.955 31.014,151.082 30.725 C 151.350 30.114,151.281 30.000,150.645 30.000 C 150.148 30.000,149.833 30.384,149.833 30.989 C 149.833 31.424,149.556 31.438,149.420 31.010 C 149.364 30.833,149.058 30.460,148.742 30.182 C 148.426 29.904,148.167 29.540,148.167 29.372 C 148.167 28.577,147.399 28.447,147.203 29.208 M21.833 29.339 C 21.833 29.933,21.562 30.080,20.749 29.927 C 20.137 29.813,19.942 29.500,20.482 29.500 C 20.655 29.500,20.973 29.352,21.190 29.172 C 21.728 28.724,21.833 28.751,21.833 29.339 M153.125 29.305 C 153.385 29.627,153.389 30.010,153.140 30.614 C 152.949 31.079,152.946 31.075,152.815 30.254 C 152.743 29.798,152.568 29.340,152.428 29.237 C 152.287 29.135,152.216 29.007,152.269 28.953 C 152.411 28.812,152.884 29.006,153.125 29.305 M94.796 29.259 C 95.147 29.505,95.367 30.833,95.057 30.833 C 94.814 30.833,93.997 29.748,94.079 29.535 C 94.127 29.409,94.167 29.237,94.167 29.153 C 94.167 28.930,94.376 28.965,94.796 29.259 M155.667 29.944 C 155.667 30.302,155.634 30.318,155.292 30.126 C 154.760 29.829,154.666 29.646,154.858 29.287 C 155.082 28.868,155.667 29.343,155.667 29.944 M117.457 29.856 C 117.618 30.280,117.609 30.443,117.411 30.726 C 117.259 30.942,117.167 31.472,117.167 32.120 C 117.167 32.707,117.093 33.167,117.000 33.167 C 116.907 33.167,116.833 32.707,116.833 32.120 C 116.833 31.431,116.742 30.944,116.567 30.694 C 116.322 30.345,116.322 30.288,116.567 30.018 C 116.713 29.856,116.833 29.636,116.833 29.529 C 116.833 29.126,117.268 29.353,117.457 29.856 M123.167 29.579 C 123.167 29.715,123.360 29.952,123.596 30.107 C 123.995 30.369,124.004 30.401,123.721 30.555 C 123.111 30.888,122.923 32.232,123.417 32.726 C 123.765 33.075,123.731 33.167,123.250 33.167 C 122.850 33.167,122.833 33.125,122.833 32.120 C 122.833 31.431,122.742 30.944,122.567 30.694 C 122.322 30.345,122.322 30.288,122.567 30.018 C 122.713 29.856,122.833 29.636,122.833 29.529 C 122.833 29.421,122.908 29.333,123.000 29.333 C 123.092 29.333,123.167 29.444,123.167 29.579 M147.833 29.571 C 147.833 29.702,147.958 29.935,148.111 30.087 C 148.348 30.324,148.359 30.447,148.188 30.920 C 148.078 31.226,147.942 31.856,147.887 32.321 L 147.787 33.167 146.643 33.167 C 145.738 33.167,145.500 33.115,145.500 32.917 C 145.500 32.627,145.582 32.610,145.972 32.818 C 146.156 32.917,146.444 32.890,146.794 32.743 C 147.869 32.291,147.360 30.500,146.157 30.500 C 145.859 30.500,145.690 30.431,145.750 30.333 C 145.807 30.242,146.150 30.167,146.513 30.167 C 147.056 30.167,147.208 30.092,147.364 29.750 C 147.571 29.294,147.833 29.194,147.833 29.571 M91.485 29.875 C 91.590 30.156,91.558 30.276,91.354 30.354 C 90.975 30.500,90.833 30.379,90.833 29.907 C 90.833 29.386,91.293 29.364,91.485 29.875 M104.103 30.087 C 103.756 30.434,103.763 30.625,104.152 31.350 C 104.754 32.473,104.787 33.475,104.235 33.915 C 103.645 34.386,103.895 34.833,104.748 34.833 C 105.344 34.833,106.167 33.898,106.167 33.220 C 106.167 33.030,106.277 32.782,106.412 32.670 C 106.547 32.558,106.702 32.193,106.757 31.858 C 106.940 30.731,107.143 30.500,107.155 31.406 C 107.173 32.673,108.638 34.262,109.237 33.663 C 109.327 33.573,109.526 33.500,109.680 33.500 C 109.833 33.500,110.053 33.387,110.167 33.250 C 110.458 32.899,110.874 32.939,111.226 33.351 C 111.522 33.696,112.610 33.715,113.714 33.394 C 114.232 33.243,114.063 30.104,113.532 30.029 C 112.891 29.938,112.667 30.278,112.667 31.344 C 112.667 32.225,112.471 32.693,112.211 32.433 C 112.155 32.377,112.066 31.826,112.013 31.208 C 111.903 29.927,111.493 29.635,110.764 30.320 L 110.394 30.668 110.032 30.250 C 109.522 29.664,108.491 29.664,108.030 30.250 C 107.633 30.754,107.478 30.770,107.205 30.333 C 106.766 29.629,105.833 30.075,105.833 30.989 C 105.833 31.466,105.623 31.419,105.298 30.871 C 104.797 30.022,104.418 29.773,104.103 30.087 M128.689 30.024 C 127.871 30.327,127.679 32.782,128.433 33.276 C 129.072 33.694,129.404 33.413,129.468 32.400 C 129.526 31.491,129.833 30.953,129.833 31.761 C 129.833 32.477,130.538 33.433,131.157 33.556 C 132.235 33.772,133.125 33.331,132.952 32.668 C 132.837 32.228,133.090 32.087,134.000 32.085 C 134.688 32.083,134.750 32.049,134.750 31.667 C 134.750 31.297,134.680 31.250,134.127 31.250 C 133.609 31.250,133.397 31.133,132.869 30.558 L 132.234 29.865 130.642 29.878 C 129.766 29.885,128.887 29.951,128.689 30.024 M100.750 30.333 C 100.811 30.433,100.610 30.500,100.250 30.500 C 99.890 30.500,99.689 30.433,99.750 30.333 C 99.807 30.242,100.032 30.167,100.250 30.167 C 100.468 30.167,100.693 30.242,100.750 30.333 M109.583 30.333 C 109.645 30.433,109.443 30.500,109.083 30.500 C 108.724 30.500,108.522 30.433,108.583 30.333 C 108.640 30.242,108.865 30.167,109.083 30.167 C 109.302 30.167,109.527 30.242,109.583 30.333 M132.083 30.333 C 132.145 30.433,131.943 30.500,131.583 30.500 C 131.224 30.500,131.022 30.433,131.083 30.333 C 131.140 30.242,131.365 30.167,131.583 30.167 C 131.802 30.167,132.027 30.242,132.083 30.333 M140.083 30.333 C 140.145 30.433,139.943 30.500,139.583 30.500 C 139.224 30.500,139.022 30.433,139.083 30.333 C 139.140 30.242,139.365 30.167,139.583 30.167 C 139.802 30.167,140.027 30.242,140.083 30.333 M143.688 30.442 C 143.815 30.596,143.925 31.131,143.935 31.651 C 143.945 32.164,143.983 32.695,144.018 32.831 C 144.099 33.139,142.430 33.360,142.070 33.090 C 141.677 32.795,142.070 32.363,142.493 32.625 C 142.944 32.905,143.248 32.887,143.515 32.565 C 143.801 32.220,143.277 31.778,142.708 31.884 C 142.476 31.927,142.333 31.871,142.333 31.738 C 142.333 31.619,142.532 31.498,142.775 31.469 C 143.736 31.355,143.669 30.509,142.698 30.503 C 142.485 30.501,142.359 30.426,142.417 30.333 C 142.581 30.067,143.438 30.141,143.688 30.442 M97.528 30.550 C 97.429 30.669,97.252 31.269,97.136 31.883 C 96.995 32.626,96.846 33.000,96.692 33.000 C 96.503 33.000,96.499 32.952,96.668 32.749 C 96.810 32.577,96.841 32.231,96.764 31.650 C 96.640 30.718,96.818 30.333,97.374 30.333 C 97.629 30.333,97.665 30.384,97.528 30.550 M129.624 30.542 C 129.472 30.658,129.250 31.263,129.120 31.916 L 128.889 33.082 128.781 31.929 C 128.661 30.642,128.794 30.333,129.469 30.333 C 129.846 30.333,129.864 30.358,129.624 30.542 M136.867 30.543 C 136.771 30.658,136.587 31.276,136.458 31.917 L 136.222 33.082 136.115 31.929 C 135.999 30.689,136.131 30.333,136.707 30.333 C 136.956 30.333,136.997 30.387,136.867 30.543 M94.591 31.221 C 95.689 31.156,96.161 31.626,96.166 32.792 C 96.168 33.231,95.660 32.973,95.427 32.417 C 95.154 31.763,94.741 31.666,93.958 32.074 C 93.455 32.337,93.409 32.265,93.480 31.333 C 93.540 30.546,93.666 30.395,93.891 30.839 C 94.048 31.150,94.219 31.243,94.591 31.221 M106.500 31.240 C 106.500 31.556,106.425 31.860,106.333 31.917 C 106.233 31.979,106.167 31.752,106.167 31.343 C 106.167 30.971,106.242 30.667,106.333 30.667 C 106.425 30.667,106.500 30.925,106.500 31.240 M150.500 31.240 C 150.500 31.556,150.425 31.860,150.333 31.917 C 150.233 31.979,150.167 31.752,150.167 31.343 C 150.167 30.971,150.242 30.667,150.333 30.667 C 150.425 30.667,150.500 30.925,150.500 31.240 M101.300 31.244 C 101.523 31.734,101.343 31.908,100.583 31.934 C 100.308 31.944,99.840 32.010,99.542 32.080 C 99.038 32.199,99.000 32.179,99.000 31.779 C 99.000 31.184,99.453 30.962,99.973 31.302 C 100.359 31.555,100.397 31.550,100.649 31.208 C 100.993 30.742,101.073 30.746,101.300 31.244 M109.250 31.681 C 109.250 32.224,109.184 32.417,109.000 32.417 C 108.716 32.417,108.589 31.831,108.742 31.221 C 108.909 30.558,109.250 30.867,109.250 31.681 M132.634 31.244 C 132.857 31.734,132.676 31.908,131.917 31.934 C 131.642 31.944,131.173 32.010,130.875 32.080 C 130.371 32.199,130.333 32.179,130.333 31.779 C 130.333 31.184,130.786 30.962,131.306 31.302 C 131.692 31.555,131.730 31.550,131.983 31.208 C 132.327 30.742,132.407 30.746,132.634 31.244 M140.634 31.244 C 140.857 31.734,140.676 31.908,139.917 31.934 C 139.642 31.944,139.173 32.010,138.875 32.080 C 138.371 32.199,138.333 32.179,138.333 31.779 C 138.333 31.184,138.786 30.962,139.306 31.302 C 139.692 31.555,139.730 31.550,139.983 31.208 C 140.327 30.742,140.407 30.746,140.634 31.244 M146.731 31.244 C 147.096 31.801,147.070 32.289,146.668 32.416 C 146.173 32.573,146.000 32.384,146.000 31.685 C 146.000 30.736,146.285 30.564,146.731 31.244 M123.968 31.805 C 124.008 32.345,123.961 32.500,123.760 32.500 C 123.562 32.500,123.500 32.317,123.500 31.736 C 123.500 30.752,123.895 30.810,123.968 31.805 M152.500 31.417 C 152.500 31.646,152.425 31.833,152.333 31.833 C 152.147 31.833,152.105 31.284,152.278 31.111 C 152.462 30.927,152.500 30.980,152.500 31.417 M141.833 31.593 C 141.833 31.725,141.758 31.833,141.667 31.833 C 141.575 31.833,141.500 31.679,141.500 31.490 C 141.500 31.301,141.575 31.193,141.667 31.250 C 141.758 31.307,141.833 31.461,141.833 31.593 M105.295 31.667 C 105.409 31.850,105.624 32.000,105.773 32.000 C 105.997 32.000,106.023 32.120,105.929 32.708 C 105.766 33.729,105.589 33.789,105.188 32.960 C 104.658 31.865,104.747 30.789,105.295 31.667 M149.295 31.667 C 149.409 31.850,149.624 32.000,149.773 32.000 C 149.997 32.000,150.023 32.120,149.929 32.708 C 149.766 33.729,149.589 33.789,149.188 32.960 C 148.658 31.865,148.747 30.789,149.295 31.667 M110.500 31.917 C 110.500 32.146,110.425 32.333,110.333 32.333 C 110.242 32.333,110.167 32.146,110.167 31.917 C 110.167 31.688,110.242 31.500,110.333 31.500 C 110.425 31.500,110.500 31.688,110.500 31.917 M134.500 31.667 C 134.500 31.758,134.387 31.833,134.250 31.833 C 134.112 31.833,134.000 31.758,134.000 31.667 C 134.000 31.575,134.112 31.500,134.250 31.500 C 134.387 31.500,134.500 31.575,134.500 31.667 M145.167 31.750 C 145.167 31.887,145.092 32.000,145.000 32.000 C 144.908 32.000,144.833 31.887,144.833 31.750 C 144.833 31.613,144.908 31.500,145.000 31.500 C 145.092 31.500,145.167 31.613,145.167 31.750 M100.667 32.333 C 100.667 32.425,100.554 32.500,100.417 32.500 C 100.279 32.500,100.167 32.425,100.167 32.333 C 100.167 32.242,100.279 32.167,100.417 32.167 C 100.554 32.167,100.667 32.242,100.667 32.333 M132.000 32.333 C 132.000 32.425,131.887 32.500,131.750 32.500 C 131.612 32.500,131.500 32.425,131.500 32.333 C 131.500 32.242,131.612 32.167,131.750 32.167 C 131.887 32.167,132.000 32.242,132.000 32.333 M140.000 32.333 C 140.000 32.425,139.887 32.500,139.750 32.500 C 139.612 32.500,139.500 32.425,139.500 32.333 C 139.500 32.242,139.612 32.167,139.750 32.167 C 139.887 32.167,140.000 32.242,140.000 32.333 M112.307 32.833 C 112.416 32.833,112.652 32.741,112.831 32.629 C 113.208 32.394,113.703 32.701,113.408 32.987 C 113.181 33.208,111.699 33.266,111.495 33.061 C 111.173 32.739,111.491 32.273,111.825 32.576 C 111.982 32.718,112.198 32.833,112.307 32.833 M119.640 32.833 C 119.749 32.833,119.985 32.741,120.165 32.629 C 120.541 32.394,121.036 32.701,120.742 32.987 C 120.514 33.208,119.032 33.266,118.828 33.061 C 118.506 32.739,118.824 32.273,119.159 32.576 C 119.315 32.718,119.532 32.833,119.640 32.833 M125.640 32.833 C 125.749 32.833,125.985 32.741,126.165 32.629 C 126.541 32.394,127.036 32.701,126.742 32.987 C 126.514 33.208,125.032 33.266,124.828 33.061 C 124.506 32.739,124.824 32.273,125.159 32.576 C 125.315 32.718,125.532 32.833,125.640 32.833 M93.167 32.917 C 93.167 33.054,93.092 33.167,93.000 33.167 C 92.908 33.167,92.833 33.054,92.833 32.917 C 92.833 32.779,92.908 32.667,93.000 32.667 C 93.092 32.667,93.167 32.779,93.167 32.917 M100.335 32.869 C 100.473 32.864,100.689 32.835,100.814 32.805 C 100.939 32.775,101.076 32.844,101.118 32.958 C 101.173 33.108,100.955 33.167,100.347 33.167 C 99.680 33.167,99.500 33.110,99.500 32.899 C 99.500 32.708,99.584 32.666,99.792 32.754 C 99.952 32.822,100.197 32.874,100.335 32.869 M108.917 32.855 C 109.008 32.845,109.233 32.818,109.417 32.794 C 109.600 32.770,109.770 32.825,109.794 32.917 C 109.818 33.008,109.462 33.106,109.002 33.134 C 108.315 33.175,108.167 33.135,108.167 32.908 C 108.167 32.709,108.249 32.665,108.458 32.752 C 108.619 32.819,108.825 32.865,108.917 32.855 M131.668 32.869 C 131.807 32.864,132.022 32.835,132.147 32.805 C 132.273 32.775,132.409 32.844,132.451 32.958 C 132.506 33.108,132.288 33.167,131.681 33.167 C 131.014 33.167,130.833 33.110,130.833 32.899 C 130.833 32.708,130.917 32.666,131.125 32.754 C 131.285 32.822,131.530 32.874,131.668 32.869 M139.668 32.869 C 139.807 32.864,140.022 32.835,140.147 32.805 C 140.273 32.775,140.409 32.844,140.451 32.958 C 140.506 33.108,140.288 33.167,139.681 33.167 C 139.014 33.167,138.833 33.110,138.833 32.899 C 138.833 32.708,138.917 32.666,139.125 32.754 C 139.285 32.822,139.530 32.874,139.668 32.869 M152.667 33.000 C 152.667 33.092,152.554 33.167,152.417 33.167 C 152.279 33.167,152.167 33.092,152.167 33.000 C 152.167 32.908,152.279 32.833,152.417 32.833 C 152.554 32.833,152.667 32.908,152.667 33.000 M73.417 33.622 C 72.490 33.853,72.589 37.667,73.521 37.667 C 73.612 37.667,73.569 37.500,73.426 37.296 C 73.053 36.763,73.056 34.245,73.430 34.101 C 73.856 33.938,75.638 33.985,75.747 34.163 C 75.803 34.252,75.701 34.608,75.522 34.954 C 75.342 35.300,74.995 36.011,74.749 36.533 C 74.503 37.055,74.216 37.518,74.110 37.561 C 74.001 37.606,74.032 37.646,74.179 37.654 C 74.418 37.666,75.333 36.488,75.333 36.168 C 75.333 36.094,75.515 35.641,75.737 35.162 C 76.415 33.698,75.512 33.098,73.417 33.622 M105.167 34.250 C 105.167 34.417,105.000 34.500,104.667 34.500 C 103.886 34.500,104.079 34.049,104.875 34.013 C 105.035 34.006,105.167 34.112,105.167 34.250 M149.167 34.250 C 149.167 34.417,149.000 34.500,148.667 34.500 C 147.886 34.500,148.079 34.049,148.875 34.013 C 149.035 34.006,149.167 34.112,149.167 34.250 " stroke="none" fill="#7bcaee" fill-rule="evenodd"></path><path id="path1" d="M160.333 9.599 C 160.333 10.724,160.370 10.874,160.667 10.952 C 160.949 11.025,161.000 11.179,161.000 11.952 C 161.000 12.724,161.051 12.878,161.333 12.952 C 161.598 13.021,161.671 13.189,161.688 13.769 C 161.718 14.853,161.733 14.917,161.944 14.917 C 162.262 14.917,162.327 15.067,162.357 15.869 C 162.377 16.394,162.481 16.700,162.693 16.852 C 162.917 17.014,163.000 17.287,163.000 17.861 C 163.000 18.452,163.081 18.704,163.325 18.875 C 163.543 19.028,163.663 19.331,163.691 19.801 C 163.713 20.186,163.797 20.500,163.876 20.500 C 163.955 20.500,163.978 20.567,163.927 20.649 C 163.877 20.731,163.947 20.841,164.084 20.894 C 164.255 20.959,164.333 21.228,164.333 21.745 C 164.333 22.209,164.408 22.500,164.528 22.500 C 164.635 22.500,164.673 22.549,164.614 22.609 C 164.554 22.668,164.612 22.799,164.742 22.900 C 164.873 23.001,165.010 23.449,165.048 23.896 C 165.092 24.425,165.212 24.762,165.391 24.862 C 165.543 24.947,165.667 25.163,165.667 25.342 C 165.667 25.663,165.178 25.667,121.250 25.667 L 76.833 25.667 76.833 26.071 C 76.833 26.560,77.131 26.922,79.680 29.527 C 81.135 31.015,81.667 31.669,81.667 31.971 C 81.667 32.382,80.698 33.500,80.342 33.500 C 80.245 33.500,80.167 33.560,80.167 33.632 C 80.167 33.705,79.773 34.060,79.292 34.422 C 78.810 34.783,78.357 35.173,78.283 35.289 C 78.210 35.405,78.044 35.500,77.914 35.500 C 77.785 35.500,77.598 35.650,77.500 35.833 C 77.402 36.017,77.257 36.167,77.178 36.167 C 76.919 36.167,76.000 37.128,76.000 37.400 C 76.000 37.644,79.889 37.667,121.167 37.667 C 166.333 37.667,166.333 37.667,166.000 38.000 C 165.815 38.185,165.667 38.556,165.667 38.832 C 165.667 39.150,165.546 39.406,165.333 39.539 C 165.103 39.683,165.000 39.927,165.000 40.333 C 165.000 40.739,164.897 40.984,164.667 41.128 C 164.459 41.258,164.333 41.517,164.333 41.815 C 164.333 42.154,164.236 42.320,164.000 42.382 C 163.747 42.448,163.667 42.609,163.667 43.048 C 163.667 43.488,163.586 43.649,163.333 43.715 C 163.068 43.784,163.000 43.942,163.000 44.494 C 163.000 44.875,162.933 45.145,162.852 45.095 C 162.771 45.045,162.627 45.097,162.533 45.210 C 162.344 45.438,162.333 45.483,162.333 46.083 C 162.333 46.341,162.239 46.500,162.085 46.500 C 161.925 46.500,161.800 46.734,161.732 47.159 C 161.674 47.521,161.486 47.946,161.313 48.102 C 161.113 48.282,161.000 48.610,161.000 49.006 C 161.000 49.488,160.925 49.647,160.667 49.715 C 160.414 49.781,160.333 49.942,160.333 50.382 C 160.333 50.821,160.253 50.982,160.000 51.048 C 159.608 51.151,159.500 53.100,159.867 53.467 C 160.158 53.758,160.616 53.711,160.866 53.364 C 160.985 53.198,161.215 53.012,161.375 52.953 C 161.535 52.893,161.667 52.729,161.667 52.589 C 161.667 52.444,161.812 52.333,162.000 52.333 C 162.218 52.333,162.333 52.222,162.333 52.013 C 162.333 51.792,162.490 51.659,162.845 51.581 C 163.126 51.519,163.396 51.363,163.446 51.234 C 163.495 51.105,163.636 51.000,163.758 51.000 C 163.881 51.000,164.079 50.864,164.199 50.697 C 164.319 50.531,164.548 50.346,164.708 50.286 C 164.869 50.226,165.000 50.062,165.000 49.922 C 165.000 49.778,165.145 49.667,165.333 49.667 C 165.556 49.667,165.667 49.556,165.667 49.333 C 165.667 49.111,165.778 49.000,166.000 49.000 C 166.188 49.000,166.333 48.889,166.333 48.745 C 166.333 48.499,166.561 48.345,167.029 48.274 C 167.397 48.218,167.678 47.986,167.576 47.822 C 167.523 47.736,167.642 47.667,167.839 47.667 C 168.058 47.667,168.232 47.536,168.285 47.333 C 168.333 47.149,168.512 47.000,168.686 47.000 C 168.889 47.000,169.000 46.882,169.000 46.667 C 169.000 46.460,169.111 46.333,169.293 46.333 C 169.455 46.333,169.680 46.183,169.795 46.000 C 169.909 45.817,170.133 45.666,170.293 45.666 C 170.453 45.666,170.907 45.327,171.302 44.913 C 171.698 44.499,172.093 44.205,172.181 44.259 C 172.269 44.314,172.331 44.296,172.318 44.221 C 172.254 43.856,172.360 43.667,172.627 43.667 C 172.788 43.667,173.013 43.517,173.128 43.333 C 173.242 43.150,173.458 43.000,173.607 43.000 C 173.756 43.000,173.999 42.864,174.147 42.697 C 174.295 42.530,174.548 42.345,174.708 42.285 C 174.869 42.226,175.000 42.062,175.000 41.922 C 175.000 41.778,175.145 41.667,175.333 41.667 C 175.549 41.667,175.667 41.556,175.667 41.353 C 175.667 41.179,175.816 41.000,176.000 40.952 C 176.183 40.904,176.333 40.745,176.333 40.599 C 176.333 40.448,176.472 40.333,176.653 40.333 C 177.075 40.333,177.515 40.159,177.433 40.024 C 177.340 39.869,177.707 39.583,178.000 39.583 C 178.137 39.583,178.240 39.452,178.227 39.292 C 178.211 39.089,178.325 39.000,178.602 39.000 C 178.889 39.000,179.000 38.907,179.000 38.667 C 179.000 38.444,179.111 38.333,179.333 38.333 C 179.556 38.333,179.667 38.222,179.667 38.000 C 179.667 37.817,179.760 37.661,179.875 37.654 C 180.405 37.621,180.749 37.502,180.806 37.332 C 180.840 37.229,181.048 37.077,181.267 36.993 C 181.487 36.910,181.667 36.736,181.667 36.607 C 181.667 36.478,181.817 36.333,182.000 36.285 C 182.183 36.237,182.333 36.078,182.333 35.932 C 182.333 35.778,182.473 35.667,182.667 35.667 C 182.882 35.667,183.000 35.556,183.000 35.352 C 183.000 35.124,183.161 35.007,183.583 34.928 C 183.917 34.865,184.167 34.719,184.167 34.587 C 184.167 34.460,184.335 34.333,184.542 34.303 C 184.958 34.244,185.240 32.167,184.831 32.167 C 184.730 32.167,184.686 32.103,184.734 32.025 C 184.783 31.947,184.640 31.786,184.417 31.667 C 184.194 31.547,184.044 31.397,184.083 31.333 C 184.123 31.269,183.973 31.119,183.750 31.000 C 183.527 30.881,183.381 30.725,183.425 30.654 C 183.469 30.582,183.353 30.476,183.167 30.417 C 182.981 30.358,182.866 30.248,182.912 30.174 C 183.002 30.029,182.516 29.555,182.349 29.625 C 182.295 29.648,182.250 29.598,182.250 29.514 C 182.250 29.302,182.010 29.083,181.778 29.083 C 181.671 29.083,181.583 28.996,181.583 28.889 C 181.583 28.640,181.360 28.417,181.111 28.416 C 181.004 28.416,180.917 28.266,180.916 28.083 C 180.916 27.862,180.805 27.750,180.583 27.750 C 180.363 27.750,180.249 27.637,180.246 27.417 C 180.243 27.194,180.146 27.100,179.954 27.132 C 179.756 27.166,179.667 27.070,179.667 26.825 C 179.667 26.615,179.536 26.435,179.349 26.386 C 179.174 26.340,178.993 26.159,178.948 25.985 C 178.902 25.810,178.745 25.667,178.599 25.667 C 178.453 25.667,178.333 25.552,178.333 25.413 C 178.333 25.273,178.145 25.087,177.915 25.000 C 177.686 24.912,177.517 24.749,177.540 24.636 C 177.564 24.524,177.508 24.426,177.417 24.420 C 177.200 24.404,175.596 22.800,175.580 22.583 C 175.574 22.492,175.476 22.436,175.364 22.460 C 175.251 22.483,175.088 22.314,175.000 22.085 C 174.913 21.855,174.727 21.667,174.587 21.667 C 174.448 21.667,174.333 21.552,174.333 21.411 C 174.333 21.271,174.202 21.107,174.042 21.048 C 173.635 20.896,171.667 18.833,171.667 18.558 C 171.667 18.435,171.517 18.333,171.333 18.333 C 171.111 18.333,171.000 18.222,171.000 18.000 C 171.000 17.778,170.889 17.667,170.667 17.667 C 170.444 17.667,170.333 17.556,170.333 17.333 C 170.333 17.111,170.222 17.000,170.000 17.000 C 169.778 17.000,169.667 16.889,169.667 16.667 C 169.667 16.444,169.556 16.333,169.333 16.333 C 169.111 16.333,169.000 16.222,169.000 16.000 C 169.000 15.778,168.889 15.667,168.667 15.667 C 168.444 15.667,168.333 15.556,168.333 15.333 C 168.333 15.111,168.222 15.000,168.000 15.000 C 167.778 15.000,167.667 14.889,167.667 14.667 C 167.667 14.444,167.556 14.333,167.333 14.333 C 167.111 14.333,167.000 14.222,167.000 14.000 C 167.000 13.778,166.889 13.667,166.667 13.667 C 166.368 13.667,166.255 13.494,166.314 13.125 C 166.324 13.056,166.183 13.000,166.000 13.000 C 165.778 13.000,165.667 12.889,165.667 12.667 C 165.667 12.444,165.556 12.333,165.333 12.333 C 165.111 12.333,165.000 12.222,165.000 12.000 C 165.000 11.778,164.889 11.667,164.667 11.667 C 164.444 11.667,164.333 11.556,164.333 11.333 C 164.333 11.118,164.222 11.000,164.019 11.000 C 163.846 11.000,163.667 10.851,163.618 10.667 C 163.570 10.483,163.412 10.333,163.266 10.333 C 163.120 10.333,163.000 10.214,163.000 10.068 C 163.000 9.922,162.850 9.763,162.667 9.715 C 162.482 9.667,162.333 9.488,162.333 9.314 C 162.333 9.111,162.215 9.000,162.000 9.000 C 161.778 9.000,161.667 8.889,161.667 8.667 C 161.667 8.389,161.556 8.333,161.000 8.333 L 160.333 8.333 160.333 9.599 M4.444 25.778 C 4.383 25.839,4.333 28.539,4.333 31.778 L 4.333 37.667 11.313 37.667 C 17.220 37.667,18.323 37.629,18.494 37.424 C 18.819 37.032,18.578 36.887,17.398 36.766 C 16.786 36.704,16.130 36.543,15.939 36.410 C 15.749 36.276,15.464 36.167,15.307 36.167 C 14.028 36.167,12.170 34.388,11.745 32.758 C 11.285 30.990,11.551 30.833,15.024 30.833 L 17.533 30.833 18.007 31.341 C 18.536 31.907,18.673 31.813,18.906 30.727 L 19.018 30.204 17.217 30.133 C 14.484 30.025,12.435 28.622,11.766 26.400 C 11.577 25.773,10.986 25.667,7.687 25.667 C 5.965 25.667,4.506 25.717,4.444 25.778 M28.253 26.355 C 28.195 26.756,28.170 27.748,28.198 28.561 L 28.250 30.038 30.444 30.011 C 33.130 29.978,32.897 29.642,33.000 33.691 C 33.096 37.477,33.164 37.667,34.417 37.667 C 35.612 37.667,35.644 37.566,35.677 33.669 L 35.706 30.261 34.978 30.075 C 34.578 29.972,34.100 29.809,33.917 29.712 C 33.733 29.615,33.396 29.450,33.167 29.345 C 32.938 29.240,32.573 29.052,32.358 28.928 C 31.855 28.638,30.500 27.312,30.500 27.109 C 30.500 27.024,30.323 26.791,30.107 26.591 C 29.891 26.391,29.684 26.137,29.648 26.026 C 29.611 25.916,29.306 25.781,28.970 25.726 L 28.360 25.627 28.253 26.355 M45.893 26.150 C 45.631 26.415,45.087 27.072,44.684 27.608 C 43.953 28.582,42.781 29.500,42.270 29.500 C 41.797 29.500,41.980 29.788,42.521 29.896 C 42.807 29.953,44.010 30.000,45.193 30.000 C 47.717 30.000,47.583 29.887,47.583 32.016 C 47.583 34.091,47.748 34.000,43.997 34.000 C 41.298 34.000,40.855 34.036,40.768 34.264 C 40.610 34.674,40.649 36.431,40.825 36.895 L 40.984 37.313 44.034 37.407 C 45.711 37.458,48.050 37.542,49.231 37.593 L 51.379 37.686 51.267 36.987 C 51.206 36.603,51.008 36.101,50.828 35.872 C 50.647 35.643,50.500 35.346,50.500 35.212 C 50.500 35.079,50.350 34.779,50.167 34.545 C 49.983 34.312,49.833 34.031,49.833 33.920 C 49.833 33.809,49.683 33.545,49.500 33.333 C 49.317 33.122,49.167 32.820,49.167 32.662 C 49.167 32.503,49.053 32.280,48.915 32.165 C 48.777 32.050,48.543 31.535,48.396 31.020 C 48.217 30.391,47.971 29.956,47.648 29.696 C 47.191 29.329,47.167 29.242,47.167 28.009 C 47.167 25.597,46.867 25.161,45.893 26.150 M54.086 26.270 C 53.947 26.602,53.833 27.342,53.833 27.915 C 53.833 28.678,53.750 29.061,53.522 29.353 C 53.185 29.782,53.259 30.259,53.721 30.642 C 53.863 30.760,54.031 31.095,54.094 31.387 C 54.158 31.678,54.350 32.096,54.522 32.314 C 54.693 32.533,54.834 32.833,54.834 32.981 C 54.835 33.129,54.985 33.475,55.167 33.750 C 55.349 34.025,55.498 34.414,55.499 34.615 C 55.501 35.344,56.262 35.270,56.442 34.523 C 56.543 34.107,56.715 33.725,57.500 32.175 C 57.683 31.813,57.833 31.411,57.833 31.281 C 57.833 31.151,57.988 30.848,58.177 30.607 C 58.571 30.108,58.510 29.933,57.823 29.578 C 57.350 29.333,57.333 29.284,57.332 28.121 C 57.332 27.458,57.253 26.635,57.158 26.292 L 56.984 25.667 55.661 25.667 L 54.338 25.667 54.086 26.270 M64.250 25.958 C 64.185 26.119,64.093 26.925,64.045 27.750 C 63.990 28.709,63.872 29.349,63.718 29.525 C 63.367 29.928,63.243 29.921,69.792 29.869 L 75.833 29.821 75.833 29.283 C 75.833 28.987,75.683 28.465,75.500 28.123 C 75.317 27.781,75.167 27.355,75.167 27.176 C 75.167 26.997,74.979 26.648,74.750 26.401 C 74.521 26.154,74.333 25.887,74.333 25.809 C 74.333 25.492,64.380 25.640,64.250 25.958 M95.255 29.058 C 95.390 29.250,95.500 29.611,95.500 29.861 C 95.500 30.498,95.710 30.559,96.496 30.149 C 97.314 29.723,98.268 29.805,98.668 30.336 L 98.928 30.680 99.296 30.257 C 99.670 29.827,100.506 29.683,100.959 29.971 C 101.747 30.472,102.228 31.770,101.767 32.152 C 101.639 32.259,101.573 32.493,101.620 32.674 C 101.792 33.331,100.897 33.771,99.824 33.556 C 99.117 33.415,98.500 32.477,98.500 31.545 C 98.500 30.764,98.421 30.707,97.870 31.093 C 97.568 31.305,97.500 31.512,97.500 32.226 C 97.500 33.278,97.311 33.501,96.425 33.497 C 95.585 33.494,95.354 33.352,95.190 32.736 C 94.992 31.992,94.492 32.025,93.840 32.825 C 92.887 33.995,92.087 33.399,92.789 32.043 C 92.968 31.699,93.164 31.102,93.224 30.717 C 93.505 28.937,94.564 28.072,95.255 29.058 M117.960 29.194 C 117.878 29.755,118.063 29.949,118.750 30.027 C 119.239 30.082,119.252 30.107,119.347 31.208 C 119.400 31.826,119.489 32.377,119.544 32.433 C 119.804 32.693,120.000 32.225,120.000 31.344 C 120.000 30.278,120.224 29.938,120.866 30.029 C 121.396 30.104,121.565 33.243,121.048 33.394 C 120.437 33.571,118.911 33.673,118.750 33.547 C 118.293 33.189,118.076 32.698,118.000 31.849 C 117.881 30.518,117.598 30.697,117.500 32.167 C 117.420 33.367,117.400 33.417,117.000 33.417 C 116.600 33.417,116.581 33.370,116.533 32.252 C 116.493 31.325,116.408 31.007,116.116 30.696 C 115.751 30.306,115.751 30.304,116.083 30.028 C 116.267 29.875,116.492 29.528,116.585 29.257 C 116.881 28.388,118.087 28.332,117.960 29.194 M153.592 29.104 C 154.203 29.664,154.254 29.683,154.303 29.355 C 154.464 28.287,156.668 28.423,156.660 29.500 C 156.655 30.160,155.779 30.845,155.168 30.668 C 154.173 30.381,153.681 30.452,153.470 30.917 C 153.365 31.146,153.222 31.333,153.152 31.333 C 152.729 31.333,152.512 32.373,152.873 32.666 C 153.186 32.919,153.207 33.001,153.016 33.231 C 152.478 33.879,151.547 33.331,151.987 32.625 C 152.136 32.388,152.143 32.243,152.014 32.114 C 151.716 31.816,151.810 31.035,152.184 30.686 C 152.619 30.281,152.471 30.000,151.823 30.000 C 151.197 30.000,151.171 29.588,151.757 28.957 C 152.326 28.343,152.806 28.382,153.592 29.104 M91.409 28.933 C 91.621 29.145,91.726 29.158,91.919 28.998 C 92.392 28.605,92.689 28.933,92.634 29.785 C 92.583 30.572,92.581 30.575,91.858 30.717 C 90.411 31.002,89.959 30.557,90.496 29.375 C 90.846 28.604,91.004 28.527,91.409 28.933 M123.410 29.264 C 123.498 29.531,123.584 29.774,123.602 29.803 C 123.620 29.832,123.998 29.908,124.442 29.971 L 125.250 30.086 125.347 31.209 C 125.400 31.827,125.489 32.377,125.544 32.433 C 125.804 32.693,126.000 32.225,126.000 31.344 C 126.000 30.278,126.224 29.938,126.866 30.029 C 127.396 30.104,127.565 33.243,127.048 33.394 C 126.071 33.678,124.880 33.689,124.608 33.418 C 124.345 33.155,124.309 33.160,124.032 33.502 C 123.749 33.852,123.710 33.856,123.118 33.609 L 122.500 33.350 122.500 32.228 C 122.500 31.293,122.437 31.038,122.125 30.705 L 121.750 30.305 122.125 30.001 C 122.331 29.833,122.500 29.610,122.500 29.504 C 122.500 28.668,123.157 28.495,123.410 29.264 M147.967 28.867 C 148.077 28.977,148.167 29.204,148.167 29.372 C 148.167 29.540,148.426 29.904,148.742 30.182 C 149.058 30.460,149.364 30.833,149.420 31.010 C 149.556 31.438,149.833 31.424,149.833 30.989 C 149.833 30.384,150.148 30.000,150.645 30.000 C 151.281 30.000,151.350 30.114,151.082 30.725 C 150.955 31.014,150.808 31.524,150.755 31.858 C 150.702 32.193,150.547 32.558,150.412 32.670 C 150.277 32.782,150.167 33.030,150.167 33.220 C 150.167 33.889,149.344 34.833,148.761 34.833 C 147.850 34.833,147.487 34.123,148.250 33.833 C 148.687 33.667,148.729 33.482,148.560 32.458 C 148.431 31.677,148.167 31.640,148.167 32.403 C 148.167 33.318,148.031 33.500,147.349 33.500 C 147.010 33.500,146.657 33.577,146.563 33.670 C 146.379 33.854,145.278 33.481,145.086 33.171 C 145.020 33.064,144.850 33.086,144.616 33.232 C 143.967 33.637,142.139 33.698,141.541 33.334 C 141.119 33.077,140.991 33.060,140.842 33.240 C 139.903 34.371,137.833 33.204,137.833 31.545 C 137.833 30.773,137.756 30.713,137.251 31.095 C 137.013 31.275,136.896 31.610,136.835 32.281 C 136.731 33.425,136.422 33.705,135.749 33.265 C 135.189 32.898,135.166 30.762,135.717 30.211 C 136.180 29.749,137.601 29.804,137.974 30.298 L 138.262 30.680 138.630 30.257 C 139.167 29.639,140.049 29.672,140.667 30.333 C 141.234 30.941,141.623 30.970,141.832 30.421 C 142.108 29.694,143.777 29.597,144.081 30.292 C 144.294 30.776,144.901 30.780,145.238 30.300 C 145.419 30.042,145.728 29.905,146.279 29.841 C 146.995 29.758,147.075 29.703,147.203 29.208 C 147.348 28.646,147.623 28.523,147.967 28.867 M21.190 29.172 C 20.973 29.352,20.655 29.500,20.482 29.500 C 19.942 29.500,20.137 29.813,20.749 29.927 C 21.562 30.080,21.833 29.933,21.833 29.339 C 21.833 28.751,21.728 28.724,21.190 29.172 M105.298 30.871 C 105.623 31.419,105.833 31.466,105.833 30.989 C 105.833 30.075,106.766 29.629,107.205 30.333 C 107.478 30.770,107.633 30.754,108.030 30.250 C 108.491 29.664,109.522 29.664,110.032 30.250 L 110.394 30.668 110.764 30.320 C 111.493 29.635,111.903 29.927,112.013 31.208 C 112.066 31.826,112.155 32.377,112.211 32.433 C 112.471 32.693,112.667 32.225,112.667 31.344 C 112.667 30.278,112.891 29.938,113.532 30.029 C 114.063 30.104,114.232 33.243,113.714 33.394 C 112.610 33.715,111.522 33.696,111.226 33.351 C 110.874 32.939,110.458 32.899,110.167 33.250 C 110.053 33.387,109.833 33.500,109.680 33.500 C 109.526 33.500,109.327 33.573,109.237 33.663 C 108.638 34.262,107.173 32.673,107.155 31.406 C 107.143 30.500,106.940 30.731,106.757 31.858 C 106.702 32.193,106.547 32.558,106.412 32.670 C 106.277 32.782,106.167 33.030,106.167 33.220 C 106.167 33.898,105.344 34.833,104.748 34.833 C 103.895 34.833,103.645 34.386,104.235 33.915 C 104.787 33.475,104.754 32.473,104.152 31.350 C 103.338 29.831,104.418 29.379,105.298 30.871 M132.869 30.558 C 133.397 31.133,133.609 31.250,134.127 31.250 C 134.680 31.250,134.750 31.297,134.750 31.667 C 134.750 32.049,134.688 32.083,134.000 32.085 C 133.090 32.087,132.837 32.228,132.952 32.668 C 133.125 33.331,132.235 33.772,131.157 33.556 C 130.538 33.433,129.833 32.477,129.833 31.761 C 129.833 30.953,129.526 31.491,129.468 32.400 C 129.359 34.127,128.000 33.763,128.000 32.007 C 128.000 30.082,128.229 29.898,130.642 29.878 L 132.234 29.865 132.869 30.558 M108.742 31.221 C 108.589 31.831,108.716 32.417,109.000 32.417 C 109.184 32.417,109.250 32.224,109.250 31.681 C 109.250 30.867,108.909 30.558,108.742 31.221 M146.111 30.944 C 145.936 31.120,145.982 32.302,146.168 32.418 C 146.465 32.601,147.000 32.322,147.000 31.983 C 147.000 31.371,146.393 30.662,146.111 30.944 M123.500 31.736 C 123.500 32.317,123.562 32.500,123.760 32.500 C 123.961 32.500,124.008 32.345,123.968 31.805 C 123.895 30.810,123.500 30.752,123.500 31.736 M141.500 31.490 C 141.500 31.679,141.575 31.833,141.667 31.833 C 141.758 31.833,141.833 31.725,141.833 31.593 C 141.833 31.461,141.758 31.307,141.667 31.250 C 141.575 31.193,141.500 31.301,141.500 31.490 M27.576 32.262 C 27.362 32.928,27.115 33.364,26.286 34.537 C 25.926 35.048,26.042 36.139,26.516 36.685 C 26.685 36.880,26.868 37.181,26.923 37.353 C 27.097 37.903,28.296 37.791,28.441 37.212 C 28.785 35.843,27.953 31.086,27.576 32.262 M62.722 32.582 C 62.554 32.902,62.158 33.671,61.843 34.290 C 61.527 34.910,61.177 35.510,61.064 35.623 C 60.952 35.737,60.811 36.056,60.750 36.332 C 60.690 36.608,60.571 36.833,60.487 36.833 C 60.402 36.833,60.333 37.021,60.333 37.250 L 60.333 37.667 64.004 37.667 L 67.675 37.667 67.837 37.239 C 68.070 36.628,68.043 34.443,67.800 34.200 C 67.671 34.071,67.002 34.000,65.909 34.000 C 63.967 34.000,63.705 33.853,63.547 32.680 C 63.435 31.840,63.130 31.804,62.722 32.582 M100.167 32.333 C 100.167 32.425,100.279 32.500,100.417 32.500 C 100.554 32.500,100.667 32.425,100.667 32.333 C 100.667 32.242,100.554 32.167,100.417 32.167 C 100.279 32.167,100.167 32.242,100.167 32.333 M131.500 32.333 C 131.500 32.425,131.612 32.500,131.750 32.500 C 131.887 32.500,132.000 32.425,132.000 32.333 C 132.000 32.242,131.887 32.167,131.750 32.167 C 131.612 32.167,131.500 32.242,131.500 32.333 M139.500 32.333 C 139.500 32.425,139.612 32.500,139.750 32.500 C 139.887 32.500,140.000 32.425,140.000 32.333 C 140.000 32.242,139.887 32.167,139.750 32.167 C 139.612 32.167,139.500 32.242,139.500 32.333 M73.375 34.110 C 73.027 34.251,73.096 36.876,73.460 37.325 C 73.882 37.846,74.234 37.629,74.751 36.529 C 74.996 36.009,75.342 35.300,75.522 34.954 C 75.701 34.608,75.803 34.252,75.747 34.163 C 75.646 33.998,73.757 33.956,73.375 34.110 " stroke="none" fill="#e6f5fb" fill-rule="evenodd"></path><path id="path2" d="M15.146 6.434 C 15.134 6.470,15.116 6.594,15.104 6.708 C 15.092 6.827,14.760 6.953,14.333 7.000 C 13.921 7.046,13.602 7.140,13.625 7.208 C 13.731 7.525,13.640 7.667,13.333 7.667 C 13.111 7.667,13.000 7.778,13.000 8.000 C 13.000 8.222,12.889 8.333,12.667 8.333 C 12.458 8.333,12.333 8.444,12.333 8.630 C 12.333 8.793,12.183 9.054,12.000 9.211 C 11.758 9.418,11.667 9.703,11.667 10.248 C 11.667 10.884,11.616 11.000,11.340 11.000 C 11.020 11.000,11.013 11.162,11.003 18.333 C 10.994 25.532,11.000 25.667,11.324 25.667 C 11.505 25.667,11.729 25.760,11.822 25.875 C 11.915 25.990,12.180 26.301,12.412 26.566 C 12.644 26.831,12.833 27.159,12.833 27.294 C 12.833 27.666,14.488 29.167,14.900 29.167 C 15.097 29.167,15.435 29.290,15.650 29.440 C 16.304 29.898,18.116 29.941,19.040 29.520 C 19.466 29.326,19.965 29.167,20.149 29.167 C 20.333 29.167,20.543 29.071,20.617 28.954 C 21.309 27.851,22.167 28.118,22.167 29.437 L 22.167 30.333 22.713 30.333 C 23.325 30.333,24.000 30.729,24.000 31.088 C 24.000 31.218,24.142 31.645,24.316 32.037 C 24.489 32.429,24.802 33.144,25.011 33.625 C 25.220 34.106,25.421 34.500,25.458 34.500 C 25.659 34.500,26.464 33.479,26.776 32.831 C 27.104 32.146,27.220 31.713,27.663 29.500 C 27.746 29.087,27.818 28.183,27.823 27.490 C 27.830 26.654,27.916 26.122,28.078 25.907 C 28.249 25.680,28.325 25.134,28.331 24.083 C 28.335 23.197,28.396 22.674,28.480 22.806 C 28.557 22.928,28.687 23.003,28.769 22.973 C 28.850 22.942,28.938 23.535,28.965 24.292 C 29.009 25.542,29.044 25.667,29.349 25.667 C 29.691 25.667,30.833 26.475,30.833 26.716 C 30.833 26.923,32.461 28.500,32.674 28.500 C 32.779 28.500,33.055 28.650,33.288 28.833 C 33.521 29.017,33.873 29.167,34.070 29.167 C 34.267 29.167,34.855 29.317,35.377 29.500 C 36.110 29.758,36.752 29.833,38.211 29.833 C 39.767 29.833,40.210 29.775,40.750 29.500 C 41.110 29.317,41.604 29.167,41.848 29.167 C 42.279 29.167,43.505 28.092,45.139 26.282 C 45.445 25.944,45.839 25.667,46.014 25.667 C 46.308 25.667,46.333 25.530,46.333 23.929 C 46.333 22.619,46.394 22.130,46.579 21.945 C 46.796 21.728,46.796 21.688,46.579 21.605 C 46.444 21.553,46.333 21.396,46.333 21.255 C 46.333 20.912,39.482 20.867,39.205 21.208 C 39.113 21.323,39.027 22.046,39.014 22.814 C 38.987 24.446,38.663 24.992,37.716 24.997 C 36.619 25.003,36.333 24.434,36.333 22.242 L 36.333 20.333 41.467 20.333 C 45.237 20.333,46.653 20.280,46.800 20.133 C 46.956 19.978,47.000 20.563,47.000 22.767 C 47.000 24.796,47.059 25.659,47.206 25.806 C 47.326 25.926,47.449 26.660,47.498 27.548 L 47.583 29.083 50.375 29.129 L 53.167 29.175 53.167 27.929 C 53.167 26.493,53.378 25.900,53.938 25.760 L 54.333 25.660 54.336 19.788 C 54.338 13.744,54.376 13.167,54.769 13.167 C 54.896 13.167,55.000 13.102,55.000 13.023 C 55.000 12.944,55.188 12.900,55.417 12.925 C 55.646 12.950,55.833 12.901,55.833 12.815 C 55.833 12.729,56.020 12.781,56.249 12.931 C 56.477 13.081,56.621 13.272,56.570 13.356 C 56.518 13.440,56.575 13.488,56.696 13.462 C 56.875 13.425,56.925 14.556,56.960 19.495 L 57.004 25.574 57.460 25.937 C 57.876 26.269,57.924 26.424,58.000 27.692 L 58.083 29.083 60.667 29.083 L 63.250 29.083 63.333 27.816 C 63.413 26.610,63.605 26.116,64.125 25.783 C 64.536 25.520,64.415 10.054,64.000 9.795 C 63.817 9.680,63.667 9.458,63.667 9.302 C 63.667 9.145,63.482 8.818,63.256 8.574 C 63.030 8.330,62.861 8.049,62.881 7.948 C 62.901 7.847,62.748 7.752,62.542 7.737 C 62.335 7.721,62.054 7.699,61.917 7.688 C 61.779 7.676,61.667 7.521,61.667 7.344 C 61.667 7.140,61.559 7.028,61.375 7.040 C 60.764 7.080,59.833 6.810,59.833 6.594 C 59.833 6.417,59.457 6.381,58.042 6.421 C 55.951 6.481,55.841 6.497,55.884 6.736 C 55.902 6.835,55.618 6.941,55.252 6.971 C 54.887 7.000,54.500 7.098,54.392 7.187 C 54.265 7.293,54.161 7.292,54.096 7.187 C 53.969 6.981,47.228 6.933,47.102 7.137 C 47.051 7.218,47.003 8.917,46.993 10.911 C 46.977 14.457,46.970 14.530,46.666 14.204 C 46.413 13.933,46.346 13.550,46.303 12.144 C 46.256 10.619,46.216 10.419,45.958 10.440 C 45.747 10.457,45.661 10.331,45.646 9.981 C 45.610 9.156,45.589 9.084,45.375 9.063 C 45.260 9.051,45.092 9.032,45.000 9.021 C 44.908 9.009,44.833 8.887,44.833 8.750 C 44.833 8.612,44.739 8.500,44.623 8.500 C 44.507 8.500,44.338 8.331,44.248 8.125 C 44.137 7.872,43.913 7.733,43.559 7.699 C 43.205 7.665,43.006 7.542,42.949 7.324 C 42.879 7.054,42.716 7.000,41.972 7.000 C 41.268 7.000,41.037 6.932,40.877 6.674 C 40.648 6.308,35.333 6.160,35.333 6.520 C 35.333 6.612,35.246 6.632,35.138 6.566 C 35.007 6.485,34.978 6.536,35.050 6.723 C 35.143 6.965,35.011 7.000,34.015 7.000 C 32.993 7.000,32.305 7.250,32.578 7.522 C 32.619 7.563,32.490 7.609,32.291 7.624 C 32.092 7.639,31.814 7.801,31.673 7.984 C 31.532 8.167,31.198 8.344,30.931 8.379 C 30.583 8.423,30.430 8.545,30.390 8.811 C 30.359 9.014,30.183 9.342,30.000 9.538 C 29.817 9.735,29.667 9.977,29.667 10.075 C 29.667 10.173,29.514 10.349,29.327 10.465 C 29.141 10.582,28.999 10.769,29.014 10.880 C 29.100 11.555,28.976 13.172,28.845 13.090 C 28.760 13.038,28.628 13.090,28.553 13.206 C 28.478 13.322,28.379 11.992,28.333 10.250 L 28.250 7.083 24.583 7.053 C 22.567 7.036,20.635 7.018,20.292 7.011 C 19.874 7.004,19.667 6.923,19.667 6.768 C 19.667 6.426,15.251 6.100,15.146 6.434 M20.333 12.577 C 20.333 12.712,20.484 12.902,20.669 13.001 C 21.122 13.243,21.119 23.962,20.667 23.861 C 20.529 23.831,20.470 23.859,20.535 23.924 C 20.711 24.099,20.196 25.000,19.921 25.000 C 19.790 25.000,19.623 24.898,19.550 24.774 C 19.477 24.650,19.246 24.459,19.037 24.349 C 18.828 24.240,18.703 24.077,18.758 23.988 C 18.813 23.898,18.759 23.846,18.637 23.871 C 18.459 23.908,18.408 22.894,18.373 18.526 L 18.329 13.135 18.706 12.737 C 19.149 12.270,20.333 12.154,20.333 12.577 M39.012 12.708 C 39.019 12.915,39.055 13.515,39.092 14.042 L 39.159 15.000 37.739 15.000 L 36.318 15.000 36.367 13.875 C 36.402 13.084,36.479 12.762,36.625 12.792 C 36.740 12.815,36.824 12.777,36.814 12.708 C 36.762 12.383,36.907 12.333,37.917 12.333 C 38.925 12.333,39.001 12.359,39.012 12.708 M94.247 29.505 C 94.143 29.674,94.798 30.492,95.042 30.497 C 95.316 30.503,95.150 29.669,94.844 29.506 C 94.443 29.291,94.379 29.291,94.247 29.505 M154.940 29.449 C 154.752 29.637,154.826 29.833,155.083 29.833 C 155.221 29.833,155.333 29.763,155.333 29.677 C 155.333 29.466,155.073 29.316,154.940 29.449 M116.888 29.833 C 116.712 30.336,116.802 33.000,116.996 33.000 C 117.172 33.000,117.308 30.188,117.153 29.750 C 117.042 29.437,117.025 29.442,116.888 29.833 M147.397 29.966 C 147.301 30.222,147.279 30.578,147.349 30.757 C 147.631 31.478,147.522 32.692,147.167 32.785 C 146.666 32.916,146.766 33.197,147.292 33.136 C 147.730 33.086,147.755 33.032,147.866 31.917 C 148.055 30.023,147.791 28.924,147.397 29.966 M122.807 29.958 C 122.693 30.464,122.910 33.003,123.070 33.044 C 123.155 33.066,123.205 32.552,123.184 31.889 C 123.152 30.913,123.197 30.666,123.428 30.537 C 123.688 30.391,123.683 30.349,123.356 30.022 C 122.925 29.592,122.890 29.588,122.807 29.958 M96.922 30.882 C 96.851 31.047,96.839 31.228,96.896 31.285 C 97.065 31.454,97.202 31.216,97.124 30.888 C 97.055 30.597,97.046 30.597,96.922 30.882 M128.922 30.882 C 128.851 31.047,128.839 31.228,128.896 31.285 C 129.065 31.454,129.202 31.216,129.124 30.888 C 129.055 30.597,129.046 30.597,128.922 30.882 M136.255 30.882 C 136.184 31.047,136.172 31.228,136.229 31.285 C 136.399 31.454,136.535 31.216,136.457 30.888 C 136.388 30.597,136.379 30.597,136.255 30.882 M106.288 30.934 C 106.221 31.001,106.167 31.171,106.167 31.311 C 106.167 31.499,106.216 31.517,106.352 31.381 C 106.454 31.279,106.509 31.110,106.474 31.004 C 106.438 30.899,106.355 30.867,106.288 30.934 M150.288 30.934 C 150.221 31.001,150.167 31.171,150.167 31.311 C 150.167 31.499,150.216 31.517,150.352 31.381 C 150.454 31.279,150.509 31.110,150.474 31.004 C 150.438 30.899,150.355 30.867,150.288 30.934 M93.531 31.450 C 93.582 31.886,93.612 31.898,94.542 31.854 C 95.406 31.814,95.500 31.842,95.500 32.145 C 95.500 32.329,95.580 32.530,95.679 32.591 C 95.795 32.663,95.839 32.508,95.804 32.142 C 95.751 31.593,95.735 31.582,94.866 31.533 C 94.286 31.499,93.951 31.399,93.890 31.241 C 93.732 30.828,93.475 30.977,93.531 31.450 M143.500 31.333 C 143.500 31.425,143.350 31.500,143.167 31.500 C 142.983 31.500,142.833 31.575,142.833 31.667 C 142.833 31.758,143.058 31.833,143.333 31.833 C 143.722 31.833,143.833 31.759,143.833 31.500 C 143.833 31.317,143.758 31.167,143.667 31.167 C 143.575 31.167,143.500 31.242,143.500 31.333 M99.403 31.486 C 99.169 31.720,99.446 31.833,100.250 31.833 C 100.872 31.833,101.167 31.766,101.167 31.625 C 101.167 31.430,99.583 31.306,99.403 31.486 M130.736 31.486 C 130.502 31.720,130.779 31.833,131.583 31.833 C 132.206 31.833,132.500 31.766,132.500 31.625 C 132.500 31.430,130.916 31.306,130.736 31.486 M138.736 31.486 C 138.502 31.720,138.779 31.833,139.583 31.833 C 140.206 31.833,140.500 31.766,140.500 31.625 C 140.500 31.430,138.916 31.306,138.736 31.486 M12.167 32.323 C 12.167 32.776,12.249 33.198,12.350 33.261 C 12.451 33.323,12.640 33.627,12.769 33.937 C 12.899 34.247,13.116 34.500,13.252 34.500 C 13.389 34.500,13.500 34.579,13.500 34.675 C 13.500 34.772,13.781 34.967,14.125 35.111 C 14.469 35.254,14.794 35.441,14.849 35.528 C 14.903 35.614,15.438 35.754,16.037 35.839 C 16.636 35.924,17.328 36.070,17.574 36.163 C 17.820 36.257,18.279 36.333,18.594 36.333 L 19.167 36.333 19.167 34.430 L 19.167 32.526 18.582 32.333 C 18.261 32.227,17.920 31.996,17.826 31.820 C 17.668 31.524,17.446 31.500,14.911 31.500 L 12.167 31.500 12.167 32.323 M104.959 32.083 C 105.003 32.313,105.100 32.500,105.175 32.500 C 105.250 32.500,105.358 32.650,105.417 32.833 C 105.568 33.309,105.833 33.246,105.833 32.734 C 105.833 32.442,105.725 32.274,105.500 32.215 C 105.317 32.167,105.167 32.024,105.167 31.897 C 105.167 31.770,105.102 31.667,105.023 31.667 C 104.944 31.667,104.915 31.854,104.959 32.083 M148.959 32.083 C 149.003 32.313,149.100 32.500,149.175 32.500 C 149.250 32.500,149.358 32.650,149.417 32.833 C 149.557 33.275,149.833 33.260,149.833 32.811 C 149.833 32.615,149.642 32.278,149.408 32.061 C 148.879 31.571,148.861 31.572,148.959 32.083 M111.604 32.785 C 111.552 32.837,111.549 32.944,111.598 33.023 C 111.715 33.213,112.167 33.208,112.167 33.018 C 112.167 32.834,111.734 32.655,111.604 32.785 M118.937 32.785 C 118.885 32.837,118.882 32.944,118.931 33.023 C 119.048 33.213,119.500 33.208,119.500 33.018 C 119.500 32.834,119.068 32.655,118.937 32.785 M124.937 32.785 C 124.885 32.837,124.882 32.944,124.931 33.023 C 125.048 33.213,125.500 33.208,125.500 33.018 C 125.500 32.834,125.068 32.655,124.937 32.785 M143.374 32.777 C 143.111 32.883,143.271 33.167,143.593 33.167 C 143.725 33.167,143.833 33.054,143.833 32.917 C 143.833 32.660,143.738 32.631,143.374 32.777 M112.583 33.000 C 112.640 33.092,112.794 33.167,112.927 33.167 C 113.059 33.167,113.167 33.092,113.167 33.000 C 113.167 32.908,113.012 32.833,112.823 32.833 C 112.635 32.833,112.527 32.908,112.583 33.000 M119.917 33.000 C 119.973 33.092,120.128 33.167,120.260 33.167 C 120.392 33.167,120.500 33.092,120.500 33.000 C 120.500 32.908,120.346 32.833,120.157 32.833 C 119.968 32.833,119.860 32.908,119.917 33.000 M125.917 33.000 C 125.973 33.092,126.128 33.167,126.260 33.167 C 126.392 33.167,126.500 33.092,126.500 33.000 C 126.500 32.908,126.346 32.833,126.157 32.833 C 125.968 32.833,125.860 32.908,125.917 33.000 M104.333 34.333 C 104.333 34.425,104.479 34.500,104.657 34.500 C 104.835 34.500,105.027 34.425,105.083 34.333 C 105.142 34.239,105.002 34.167,104.760 34.167 C 104.525 34.167,104.333 34.242,104.333 34.333 M148.333 34.333 C 148.333 34.425,148.479 34.500,148.657 34.500 C 148.835 34.500,149.027 34.425,149.083 34.333 C 149.142 34.239,149.002 34.167,148.760 34.167 C 148.525 34.167,148.333 34.242,148.333 34.333 " stroke="none" fill="#04acec" fill-rule="evenodd"></path><path id="path3" d="M19.458 6.444 C 19.573 6.490,19.667 6.634,19.667 6.764 C 19.667 6.894,19.791 7.000,19.942 7.000 C 20.191 7.000,20.188 6.966,19.917 6.667 C 19.751 6.483,19.533 6.339,19.433 6.346 C 19.327 6.354,19.338 6.395,19.458 6.444 M34.750 6.667 C 34.457 6.990,34.459 7.000,34.802 7.000 C 35.064 7.000,35.128 6.928,35.050 6.723 C 34.978 6.536,35.007 6.485,35.138 6.566 C 35.246 6.632,35.333 6.607,35.333 6.510 C 35.333 6.234,35.080 6.302,34.750 6.667 M59.833 6.583 C 59.833 6.721,59.955 6.833,60.104 6.833 C 60.325 6.833,60.337 6.788,60.167 6.583 C 60.053 6.446,59.931 6.333,59.896 6.333 C 59.862 6.333,59.833 6.446,59.833 6.583 M31.262 7.929 C 30.937 8.254,30.933 8.333,31.244 8.333 C 31.378 8.333,31.569 8.183,31.667 8.000 C 31.882 7.597,31.637 7.554,31.262 7.929 M12.556 8.111 C 12.556 8.233,12.656 8.333,12.778 8.333 C 12.900 8.333,13.000 8.233,13.000 8.111 C 13.000 7.989,12.900 7.889,12.778 7.889 C 12.656 7.889,12.556 7.989,12.556 8.111 M44.531 8.446 C 44.686 8.487,44.846 8.647,44.887 8.802 C 44.940 9.001,44.967 8.974,44.981 8.708 C 44.996 8.420,44.914 8.338,44.625 8.353 C 44.359 8.366,44.332 8.394,44.531 8.446 M63.198 8.510 C 63.238 8.631,63.369 8.762,63.490 8.802 C 63.615 8.844,63.677 8.781,63.635 8.656 C 63.595 8.536,63.464 8.405,63.344 8.365 C 63.219 8.323,63.156 8.385,63.198 8.510 M29.821 9.069 C 29.814 9.077,29.775 9.268,29.733 9.495 L 29.658 9.906 29.996 9.543 C 30.181 9.344,30.333 9.152,30.333 9.118 C 30.333 9.067,29.863 9.022,29.821 9.069 M11.222 10.778 C 11.222 10.900,11.322 11.000,11.444 11.000 C 11.567 11.000,11.667 10.900,11.667 10.778 C 11.667 10.656,11.567 10.556,11.444 10.556 C 11.322 10.556,11.222 10.656,11.222 10.778 M54.500 13.437 C 54.500 13.659,54.545 13.670,54.750 13.500 C 54.887 13.386,55.000 13.264,55.000 13.230 C 55.000 13.195,54.887 13.167,54.750 13.167 C 54.612 13.167,54.500 13.288,54.500 13.437 M46.333 13.772 C 46.333 13.813,46.485 14.010,46.671 14.210 L 47.009 14.572 46.948 14.175 C 46.900 13.858,46.333 13.486,46.333 13.772 M46.333 21.260 C 46.333 21.398,46.444 21.553,46.579 21.605 C 46.796 21.688,46.796 21.728,46.579 21.945 C 46.232 22.292,46.239 22.786,46.587 22.497 C 46.727 22.381,46.803 22.247,46.755 22.200 C 46.708 22.153,46.745 22.023,46.838 21.911 C 46.930 21.800,46.961 21.593,46.907 21.451 C 46.769 21.093,46.333 20.948,46.333 21.260 M18.584 24.001 C 18.916 24.367,19.098 24.328,18.942 23.924 C 18.888 23.782,18.717 23.667,18.563 23.667 C 18.306 23.667,18.308 23.696,18.584 24.001 M20.311 24.243 C 19.978 24.559,19.648 24.765,19.576 24.700 C 19.505 24.636,19.501 24.677,19.566 24.792 C 19.780 25.163,20.098 25.014,20.544 24.333 C 20.784 23.967,20.966 23.667,20.949 23.668 C 20.931 23.669,20.644 23.928,20.311 24.243 M74.399 24.569 C 74.205 25.075,74.411 25.735,74.790 25.827 C 75.218 25.930,76.153 27.646,76.161 28.343 C 76.164 28.578,76.277 28.915,76.411 29.093 C 76.719 29.500,76.737 30.235,76.444 30.477 C 76.292 30.603,74.314 30.676,70.235 30.706 L 64.250 30.750 64.201 31.944 L 64.153 33.138 66.154 33.194 C 68.491 33.259,68.670 33.358,68.794 34.645 C 68.948 36.252,68.706 37.347,68.150 37.557 L 67.663 37.741 67.706 43.996 L 67.750 50.250 70.667 50.250 L 73.583 50.250 73.667 44.083 C 73.712 40.692,73.811 38.010,73.885 38.125 C 74.090 38.442,75.487 38.395,75.613 38.067 C 75.774 37.648,75.348 37.511,74.212 37.617 C 72.657 37.763,72.500 37.570,72.500 35.506 C 72.500 33.295,72.541 33.250,74.544 33.250 C 76.746 33.250,77.031 33.819,75.782 35.724 C 75.434 36.256,75.424 36.500,75.750 36.500 C 75.887 36.500,76.000 36.435,76.000 36.355 C 76.000 36.276,76.281 36.025,76.625 35.797 C 77.221 35.402,77.482 35.192,78.712 34.110 C 79.008 33.850,79.681 33.333,80.208 32.961 C 81.459 32.079,81.485 32.157,79.160 29.813 C 76.268 26.897,75.904 26.426,76.142 25.904 C 76.418 25.298,76.378 25.000,76.019 25.000 C 75.846 25.000,75.667 24.851,75.618 24.667 C 75.514 24.267,74.545 24.189,74.399 24.569 M22.098 30.458 C 22.029 30.527,21.437 30.621,20.780 30.667 L 19.588 30.750 19.432 31.417 C 19.347 31.783,19.267 33.283,19.255 34.749 L 19.233 37.415 18.781 37.573 L 18.329 37.732 18.373 43.991 L 18.417 50.250 21.333 50.250 L 24.250 50.250 24.296 47.877 C 24.339 45.669,24.319 45.485,24.005 45.215 C 23.700 44.955,23.667 44.729,23.667 42.937 C 23.667 40.959,23.668 40.950,24.000 41.250 C 24.226 41.454,24.333 41.763,24.333 42.208 C 24.333 42.724,24.405 42.883,24.667 42.952 C 24.923 43.019,25.000 43.179,25.000 43.646 C 25.000 44.073,25.099 44.315,25.333 44.461 C 25.576 44.613,25.667 44.850,25.667 45.333 C 25.667 45.817,25.757 46.054,26.000 46.205 C 26.226 46.346,26.333 46.594,26.333 46.972 C 26.333 47.391,26.417 47.553,26.667 47.618 C 26.936 47.689,27.000 47.846,27.000 48.438 C 27.000 48.964,27.094 49.250,27.333 49.455 C 27.517 49.612,27.667 49.876,27.667 50.041 C 27.667 50.320,27.870 50.338,30.625 50.296 L 33.583 50.250 33.627 43.958 C 33.668 38.045,33.653 37.667,33.377 37.664 C 32.622 37.658,32.588 37.514,32.500 34.048 L 32.417 30.750 30.667 30.750 L 28.917 30.750 28.872 34.024 C 28.835 36.671,28.779 37.337,28.580 37.503 C 28.432 37.625,28.333 37.995,28.333 38.421 C 28.333 39.053,28.295 39.125,28.000 39.048 C 27.743 38.981,27.667 38.821,27.667 38.346 C 27.667 37.759,27.635 37.724,26.962 37.574 C 26.462 37.462,26.201 37.296,26.062 37.000 C 25.305 35.388,25.156 34.964,25.245 34.684 C 25.300 34.509,25.183 34.003,24.986 33.558 C 24.119 31.610,24.000 31.311,24.000 31.088 C 24.000 30.557,22.496 30.058,22.098 30.458 M36.280 30.776 C 36.218 30.838,36.167 32.296,36.167 34.016 C 36.167 37.347,36.093 37.667,35.319 37.667 C 35.004 37.667,34.997 37.827,35.040 43.958 L 35.083 50.250 44.375 50.293 L 53.667 50.336 53.667 49.918 C 53.667 49.659,53.761 49.500,53.915 49.500 C 54.075 49.500,54.200 49.266,54.268 48.841 C 54.326 48.479,54.514 48.054,54.687 47.898 C 54.890 47.715,55.000 47.390,55.000 46.974 C 55.000 46.444,55.058 46.333,55.333 46.333 C 55.574 46.333,55.667 46.222,55.667 45.932 C 55.667 45.613,55.735 45.549,56.000 45.618 C 56.256 45.685,56.333 45.846,56.333 46.313 C 56.333 46.739,56.432 46.982,56.667 47.128 C 56.850 47.242,57.001 47.504,57.002 47.710 C 57.006 48.345,57.195 48.833,57.436 48.833 C 57.586 48.833,57.667 49.026,57.667 49.383 C 57.667 50.305,57.772 50.333,61.200 50.333 L 64.333 50.333 64.333 49.401 C 64.333 48.609,64.283 48.456,64.000 48.382 C 63.747 48.316,63.667 48.154,63.667 47.715 C 63.667 47.276,63.586 47.114,63.333 47.048 C 63.098 46.987,63.000 46.821,63.000 46.482 C 63.000 46.183,62.874 45.924,62.667 45.795 C 62.483 45.680,62.333 45.455,62.333 45.293 C 62.333 45.132,62.183 44.850,62.000 44.667 C 61.817 44.483,61.667 44.201,61.667 44.040 C 61.667 43.879,61.517 43.653,61.333 43.539 C 61.121 43.406,61.000 43.150,61.000 42.832 C 61.000 42.444,60.926 42.333,60.667 42.333 C 60.395 42.333,60.333 42.222,60.333 41.734 C 60.333 41.276,60.255 41.115,60.000 41.048 C 59.716 40.974,59.667 40.821,59.667 40.021 C 59.667 39.261,59.731 39.040,60.000 38.872 C 60.399 38.623,60.449 37.804,60.083 37.500 C 59.751 37.224,59.767 36.669,60.122 36.162 C 60.435 35.716,61.156 34.387,62.018 32.667 C 62.317 32.071,62.672 31.452,62.807 31.291 C 63.190 30.835,62.941 30.754,60.970 30.693 C 58.967 30.631,58.167 30.983,58.167 31.925 C 58.167 32.125,58.017 32.479,57.833 32.712 C 57.650 32.945,57.500 33.259,57.500 33.410 C 57.500 33.561,57.356 33.961,57.180 34.300 C 57.005 34.639,56.781 35.124,56.683 35.378 C 56.306 36.353,55.169 36.264,55.166 35.260 C 55.165 35.071,55.015 34.692,54.833 34.417 C 54.651 34.142,54.502 33.796,54.501 33.647 C 54.500 33.499,54.350 33.188,54.167 32.955 C 53.983 32.721,53.833 32.379,53.833 32.194 C 53.833 32.009,53.733 31.756,53.610 31.633 C 53.487 31.510,53.296 31.243,53.187 31.038 C 52.999 30.686,52.886 30.667,51.004 30.667 C 48.847 30.667,48.621 30.761,49.156 31.441 C 49.345 31.681,49.500 32.007,49.500 32.163 C 49.500 32.320,49.650 32.584,49.833 32.750 C 50.017 32.916,50.167 33.159,50.167 33.291 C 50.167 33.423,50.317 33.721,50.500 33.955 C 50.683 34.188,50.833 34.514,50.833 34.679 C 50.833 34.845,50.908 35.027,51.000 35.083 C 51.749 35.546,52.145 37.514,51.519 37.662 C 51.160 37.747,51.148 37.777,51.395 37.982 C 51.544 38.106,51.667 38.386,51.667 38.604 C 51.667 38.889,51.760 39.000,52.000 39.000 C 52.274 39.000,52.333 39.111,52.333 39.627 C 52.333 40.073,52.237 40.313,52.000 40.461 C 51.792 40.591,51.667 40.850,51.667 41.149 C 51.667 41.488,51.569 41.653,51.333 41.715 C 51.081 41.781,51.000 41.942,51.000 42.382 C 51.000 42.821,50.919 42.982,50.667 43.048 C 50.414 43.114,50.333 43.276,50.333 43.715 C 50.333 44.154,50.253 44.316,50.000 44.382 C 49.745 44.448,49.667 44.609,49.667 45.068 C 49.667 45.556,49.605 45.667,49.333 45.667 C 49.056 45.667,49.000 45.778,49.000 46.333 C 49.000 46.889,48.944 47.000,48.667 47.000 C 48.425 47.000,48.333 46.889,48.333 46.595 C 48.333 45.722,48.099 45.667,44.405 45.667 L 41.000 45.667 41.000 43.670 L 41.000 41.674 44.292 41.629 L 47.583 41.583 47.630 39.625 L 47.677 37.667 44.297 37.664 C 39.907 37.661,40.098 37.755,40.036 35.568 C 39.969 33.178,39.828 33.264,43.941 33.198 L 47.181 33.147 47.132 31.948 L 47.083 30.750 41.738 30.706 C 38.799 30.682,36.342 30.713,36.280 30.776 M29.119 51.104 C 29.053 51.169,29.000 51.622,29.000 52.111 L 29.000 53.000 28.109 53.000 C 27.297 53.000,27.148 53.062,26.442 53.697 L 25.667 54.393 25.667 56.440 C 25.667 57.873,25.729 58.540,25.875 58.663 C 25.990 58.759,26.296 59.027,26.556 59.258 C 27.011 59.662,27.100 59.675,28.972 59.630 L 30.917 59.583 30.917 55.333 L 30.917 51.083 30.077 51.034 C 29.615 51.007,29.184 51.038,29.119 51.104 M57.747 51.208 C 57.705 51.323,57.689 53.254,57.711 55.500 L 57.750 59.583 58.471 59.635 C 59.652 59.720,59.667 59.679,59.667 56.346 C 59.667 54.277,59.607 53.340,59.467 53.200 C 59.311 53.044,59.311 53.000,59.467 53.000 C 59.733 53.000,59.733 51.466,59.467 51.200 C 59.200 50.933,57.845 50.939,57.747 51.208 M53.000 52.314 C 53.000 52.821,52.928 52.980,52.667 53.048 C 52.383 53.122,52.333 53.276,52.333 54.068 C 52.333 54.889,52.373 55.000,52.667 55.000 C 52.981 55.000,53.000 55.111,53.000 56.971 C 53.000 59.519,53.143 59.708,55.019 59.633 L 56.250 59.583 56.300 58.625 L 56.350 57.667 55.675 57.667 L 55.000 57.667 55.000 56.333 L 55.000 55.000 55.675 55.000 L 56.350 55.000 56.300 54.042 L 56.250 53.083 55.625 53.032 C 55.017 52.981,55.000 52.962,55.000 52.323 L 55.000 51.667 54.000 51.667 L 53.000 51.667 53.000 52.314 M73.635 52.653 C 73.388 52.849,73.139 53.157,73.082 53.338 C 72.945 53.768,72.397 53.762,72.284 53.328 C 72.200 53.008,72.085 52.992,70.306 53.036 L 68.417 53.083 68.417 56.333 L 68.417 59.583 69.333 59.583 L 70.250 59.583 70.297 57.590 C 70.335 55.987,70.400 55.535,70.631 55.280 C 70.903 54.979,70.921 55.076,71.000 57.273 L 71.083 59.583 72.000 59.583 L 72.917 59.583 72.962 56.713 C 73.007 53.873,73.011 53.846,73.337 54.125 C 73.552 54.309,73.667 54.616,73.667 55.005 C 73.667 56.014,73.862 56.117,75.958 56.219 C 78.335 56.335,78.333 56.336,78.333 54.333 C 78.333 52.484,77.910 51.851,77.215 52.662 C 76.967 52.952,76.901 52.962,76.667 52.750 C 76.173 52.303,74.157 52.238,73.635 52.653 M20.125 53.115 C 19.965 53.157,19.833 53.293,19.833 53.417 C 19.833 53.542,19.665 53.667,19.458 53.697 C 19.122 53.745,19.078 53.856,19.034 54.792 C 18.997 55.568,18.923 55.833,18.742 55.833 C 18.584 55.833,18.500 56.007,18.500 56.333 C 18.500 56.667,18.583 56.833,18.750 56.833 C 18.945 56.833,19.000 57.056,19.000 57.839 C 19.000 58.643,19.058 58.865,19.292 58.953 C 19.452 59.012,19.681 59.198,19.801 59.364 C 20.143 59.839,22.826 59.813,22.952 59.333 C 23.000 59.150,23.146 59.000,23.277 59.000 C 23.910 59.000,24.577 57.643,24.152 57.219 C 24.022 57.088,24.022 57.006,24.152 56.926 C 24.482 56.722,24.370 55.252,24.000 54.917 C 23.815 54.750,23.667 54.403,23.667 54.141 C 23.667 53.788,23.587 53.667,23.353 53.667 C 23.179 53.667,23.000 53.518,22.952 53.333 C 22.866 53.005,21.076 52.866,20.125 53.115 M32.667 53.333 C 32.366 53.634,32.333 53.889,32.333 55.932 C 32.333 58.058,32.354 58.203,32.667 58.285 C 32.898 58.346,33.000 58.512,33.000 58.832 C 33.000 59.595,33.274 59.682,35.523 59.630 L 37.583 59.583 37.629 56.522 C 37.681 53.007,37.666 52.959,36.515 53.034 L 35.750 53.083 35.703 55.024 C 35.661 56.793,35.627 56.971,35.328 57.050 C 35.019 57.130,35.000 57.045,35.000 55.581 C 35.000 53.318,33.819 52.181,32.667 53.333 M40.382 53.333 C 40.333 53.518,40.154 53.667,39.981 53.667 C 39.784 53.667,39.667 53.784,39.667 53.981 C 39.667 54.154,39.518 54.333,39.333 54.382 C 39.025 54.462,39.000 54.609,39.000 56.333 C 39.000 58.058,39.025 58.204,39.333 58.285 C 39.518 58.333,39.667 58.512,39.667 58.686 C 39.667 58.882,39.784 59.000,39.981 59.000 C 40.154 59.000,40.333 59.149,40.382 59.333 C 40.507 59.812,42.991 59.834,43.452 59.360 C 43.616 59.191,43.881 59.006,44.042 58.949 C 44.272 58.866,44.333 58.649,44.333 57.922 L 44.333 57.000 43.333 57.000 C 42.444 57.000,42.333 57.037,42.333 57.333 C 42.333 57.556,42.222 57.667,42.000 57.667 C 41.806 57.667,41.667 57.556,41.667 57.401 C 41.667 57.255,41.517 57.096,41.333 57.048 C 41.072 56.980,41.000 56.821,41.000 56.314 C 41.000 55.778,41.057 55.667,41.333 55.667 C 41.556 55.667,41.667 55.556,41.667 55.333 C 41.667 55.111,41.778 55.000,42.000 55.000 C 42.222 55.000,42.333 55.111,42.333 55.333 C 42.333 55.630,42.444 55.667,43.342 55.667 L 44.351 55.667 44.300 54.809 C 44.263 54.174,44.167 53.903,43.931 53.767 C 43.756 53.666,43.475 53.452,43.306 53.292 C 42.826 52.835,40.503 52.868,40.382 53.333 M47.048 53.333 C 47.000 53.518,46.821 53.667,46.647 53.667 C 46.415 53.667,46.333 53.787,46.333 54.133 C 46.333 54.390,46.243 54.690,46.133 54.800 C 45.978 54.956,45.978 55.044,46.133 55.200 C 46.465 55.531,46.380 56.282,46.000 56.382 C 45.384 56.543,45.526 58.281,46.217 59.058 L 46.768 59.677 48.842 59.630 L 50.917 59.583 50.917 56.669 C 50.917 53.971,50.894 53.750,50.610 53.695 C 50.441 53.663,50.160 53.493,49.985 53.318 C 49.502 52.836,47.175 52.848,47.048 53.333 M62.382 53.333 C 62.333 53.518,62.154 53.667,61.981 53.667 C 61.784 53.667,61.667 53.784,61.667 53.981 C 61.667 54.154,61.518 54.333,61.333 54.382 C 61.025 54.462,61.000 54.609,61.000 56.333 C 61.000 58.058,61.025 58.204,61.333 58.285 C 61.518 58.333,61.667 58.512,61.667 58.686 C 61.667 58.882,61.784 59.000,61.981 59.000 C 62.154 59.000,62.333 59.149,62.382 59.333 C 62.507 59.813,65.190 59.839,65.532 59.364 C 65.652 59.198,65.881 59.012,66.042 58.953 C 66.255 58.873,66.333 58.659,66.333 58.157 C 66.333 57.722,66.456 57.314,66.667 57.045 C 66.850 56.812,67.000 56.482,67.000 56.312 C 67.000 56.142,66.850 55.909,66.667 55.795 C 66.402 55.629,66.333 55.406,66.333 54.705 C 66.333 54.016,66.269 53.800,66.042 53.718 C 65.881 53.660,65.616 53.475,65.452 53.307 C 64.991 52.833,62.507 52.854,62.382 53.333 M64.333 56.333 C 64.333 57.556,64.306 57.667,64.000 57.667 C 63.806 57.667,63.667 57.556,63.667 57.401 C 63.667 57.255,63.517 57.096,63.333 57.048 C 63.074 56.981,63.000 56.821,63.000 56.333 C 63.000 55.846,63.074 55.686,63.333 55.618 C 63.517 55.570,63.667 55.412,63.667 55.266 C 63.667 55.111,63.806 55.000,64.000 55.000 C 64.306 55.000,64.333 55.111,64.333 56.333 M28.708 55.565 C 29.089 55.854,29.118 57.000,28.745 57.000 C 28.604 57.000,28.449 57.107,28.398 57.237 C 28.230 57.676,27.667 56.998,27.667 56.356 C 27.667 55.865,28.010 55.344,28.333 55.344 C 28.379 55.344,28.548 55.444,28.708 55.565 M21.878 57.333 C 21.721 57.517,21.459 57.667,21.296 57.667 C 21.111 57.667,21.000 57.542,21.000 57.333 C 21.000 57.064,21.111 57.000,21.582 57.000 C 22.147 57.000,22.156 57.009,21.878 57.333 " stroke="none" fill="#0474bc" fill-rule="evenodd"></path><path id="path4" d="M27.995 26.009 C 27.894 26.198,27.836 26.426,27.867 26.516 C 27.897 26.607,28.008 26.453,28.113 26.174 C 28.332 25.594,28.266 25.502,27.995 26.009 M29.667 25.716 C 29.667 25.751,29.929 26.019,30.250 26.311 C 30.571 26.603,30.833 26.783,30.833 26.712 C 30.833 26.641,30.571 26.374,30.250 26.118 C 29.929 25.862,29.667 25.681,29.667 25.716 M74.724 26.061 C 75.200 26.452,75.735 27.588,76.107 28.997 C 76.476 30.388,76.729 30.333,69.964 30.333 L 64.158 30.333 63.996 30.761 C 63.782 31.324,63.788 32.770,64.006 33.178 C 64.160 33.465,64.369 33.500,65.930 33.500 C 68.313 33.500,68.578 33.727,68.465 35.678 C 68.409 36.640,68.307 37.086,68.085 37.331 C 67.736 37.717,67.949 37.779,68.426 37.431 C 68.708 37.225,68.748 36.983,68.749 35.521 C 68.750 33.260,68.758 33.267,66.154 33.194 L 64.153 33.138 64.201 31.944 L 64.250 30.750 70.235 30.706 C 74.314 30.676,76.292 30.603,76.444 30.477 C 76.737 30.235,76.719 29.500,76.411 29.093 C 76.277 28.915,76.167 28.592,76.167 28.374 C 76.167 27.620,75.192 25.877,74.721 25.787 L 74.293 25.705 74.724 26.061 M76.102 25.966 C 75.939 26.448,76.413 27.043,79.160 29.813 C 81.485 32.157,81.459 32.079,80.208 32.961 C 79.681 33.333,79.008 33.850,78.712 34.110 C 77.482 35.192,77.221 35.402,76.625 35.797 C 76.281 36.025,76.000 36.276,76.000 36.355 C 76.000 36.435,75.887 36.500,75.750 36.500 C 75.424 36.500,75.434 36.256,75.782 35.724 C 76.346 34.864,76.648 33.692,76.365 33.458 C 75.918 33.087,73.024 33.180,72.736 33.574 C 72.355 34.096,72.407 37.031,72.805 37.391 C 73.193 37.742,73.445 37.754,73.095 37.405 C 72.806 37.115,72.713 34.281,72.979 33.861 C 73.324 33.317,75.896 33.419,76.044 33.984 C 76.117 34.264,75.581 35.778,75.153 36.500 C 74.485 37.626,74.487 37.582,75.101 37.596 C 75.565 37.606,75.667 37.546,75.671 37.263 C 75.674 37.017,76.495 36.264,78.502 34.667 C 82.015 31.870,81.970 32.290,79.066 29.334 C 76.905 27.134,76.442 26.558,76.296 25.882 C 76.241 25.629,76.211 25.642,76.102 25.966 M11.838 25.946 C 11.836 26.053,12.010 26.353,12.225 26.612 C 12.441 26.871,12.660 27.196,12.712 27.333 C 12.789 27.536,12.810 27.529,12.820 27.298 C 12.827 27.141,12.694 26.879,12.525 26.715 C 12.355 26.551,12.132 26.267,12.030 26.083 C 11.927 25.900,11.841 25.838,11.838 25.946 M45.000 26.399 C 44.771 26.681,44.058 27.428,43.417 28.060 C 42.316 29.144,42.295 29.180,43.035 28.681 C 43.467 28.390,43.992 27.927,44.202 27.653 C 44.412 27.379,44.800 26.892,45.064 26.572 C 45.328 26.251,45.516 25.966,45.481 25.938 C 45.445 25.910,45.229 26.117,45.000 26.399 M53.345 26.304 C 53.236 26.568,53.176 27.284,53.209 27.929 L 53.268 29.083 53.301 27.829 C 53.322 27.009,53.423 26.446,53.593 26.204 C 53.735 26.000,53.782 25.833,53.696 25.833 C 53.611 25.833,53.453 26.045,53.345 26.304 M57.339 25.923 C 57.342 26.011,57.454 26.229,57.589 26.407 C 57.746 26.616,57.833 27.121,57.833 27.832 C 57.833 29.342,57.817 29.333,60.603 29.333 C 63.594 29.333,63.500 29.372,63.500 28.143 C 63.500 27.600,63.612 26.887,63.750 26.558 C 64.077 25.774,64.066 25.666,63.708 26.171 C 63.519 26.438,63.387 27.023,63.333 27.833 L 63.250 29.083 60.667 29.083 L 58.083 29.083 58.000 27.714 C 57.939 26.713,57.838 26.265,57.625 26.053 C 57.465 25.893,57.336 25.834,57.339 25.923 M31.500 27.750 C 32.231 28.495,32.333 28.577,32.333 28.417 C 32.333 28.287,31.015 27.000,30.882 27.000 C 30.817 27.000,31.095 27.337,31.500 27.750 M13.500 28.417 C 13.905 28.829,14.302 29.167,14.383 29.167 C 14.464 29.167,14.183 28.829,13.759 28.417 C 13.334 28.004,12.937 27.667,12.876 27.667 C 12.814 27.667,13.095 28.004,13.500 28.417 M21.127 28.473 C 20.876 28.625,20.633 28.849,20.586 28.970 C 20.540 29.091,20.699 29.034,20.940 28.845 C 21.419 28.468,22.000 28.386,22.000 28.694 C 22.000 28.801,22.048 28.841,22.107 28.782 C 22.221 28.668,21.864 28.156,21.688 28.182 C 21.630 28.190,21.378 28.321,21.127 28.473 M32.917 28.833 C 33.567 29.264,33.835 29.264,33.288 28.833 C 33.055 28.650,32.763 28.500,32.640 28.501 C 32.517 28.502,32.642 28.651,32.917 28.833 M152.269 28.953 C 152.216 29.007,152.287 29.135,152.428 29.237 C 152.568 29.340,152.743 29.798,152.815 30.254 C 152.946 31.075,152.949 31.079,153.140 30.614 C 153.520 29.692,152.835 28.387,152.269 28.953 M27.693 29.417 C 27.676 29.692,27.554 30.217,27.421 30.583 C 27.289 30.950,27.187 31.475,27.193 31.750 C 27.201 32.068,27.231 32.129,27.277 31.917 C 27.317 31.733,27.463 31.316,27.602 30.990 C 27.751 30.642,27.829 30.090,27.790 29.656 C 27.747 29.164,27.714 29.084,27.693 29.417 M47.646 29.213 C 47.717 29.284,48.970 29.321,50.429 29.296 L 53.083 29.249 50.300 29.166 C 48.768 29.121,47.574 29.142,47.646 29.213 M94.167 29.153 C 94.167 29.237,94.127 29.409,94.079 29.535 C 93.982 29.787,94.935 30.954,95.102 30.787 C 95.159 30.730,94.956 30.455,94.651 30.177 C 94.010 29.591,94.144 29.146,94.857 29.494 L 95.250 29.685 94.857 29.343 C 94.437 28.977,94.167 28.903,94.167 29.153 M154.819 29.361 C 154.638 29.701,154.643 29.724,154.863 29.543 C 155.001 29.429,155.163 29.386,155.224 29.446 C 155.406 29.628,155.347 29.806,155.085 29.863 C 154.917 29.899,154.971 29.979,155.252 30.109 C 155.784 30.357,155.855 29.722,155.347 29.262 C 155.041 28.985,155.017 28.989,154.819 29.361 M15.323 29.510 C 15.731 29.694,16.181 29.814,16.323 29.775 C 16.507 29.726,16.485 29.698,16.250 29.681 C 16.067 29.667,15.771 29.546,15.593 29.411 C 15.415 29.277,15.115 29.168,14.926 29.170 C 14.707 29.173,14.850 29.295,15.323 29.510 M19.083 29.500 C 18.578 29.744,18.505 29.823,18.782 29.828 C 18.983 29.831,19.193 29.760,19.248 29.669 C 19.304 29.579,19.590 29.436,19.883 29.351 C 20.212 29.256,20.289 29.193,20.083 29.187 C 19.900 29.182,19.450 29.323,19.083 29.500 M34.833 29.554 C 36.157 30.001,36.375 30.133,36.211 30.387 C 36.141 30.495,36.046 32.071,36.000 33.889 C 35.924 36.914,35.889 37.214,35.593 37.430 C 35.235 37.692,35.437 37.754,35.833 37.504 C 36.037 37.375,36.099 36.734,36.167 34.048 L 36.250 30.750 41.667 30.750 L 47.083 30.750 47.132 31.948 L 47.181 33.147 43.941 33.198 C 39.828 33.264,39.969 33.178,40.036 35.568 C 40.098 37.748,39.957 37.673,43.917 37.627 L 46.917 37.592 43.917 37.545 C 40.272 37.489,40.333 37.525,40.333 35.482 C 40.333 33.475,40.287 33.500,44.066 33.500 C 47.565 33.500,47.333 33.612,47.333 31.917 C 47.333 30.231,47.523 30.333,44.388 30.333 C 42.816 30.333,41.507 30.260,41.322 30.161 C 40.835 29.900,40.935 29.528,41.542 29.353 C 41.897 29.250,41.967 29.192,41.744 29.182 C 41.557 29.173,41.110 29.317,40.750 29.500 C 40.210 29.775,39.767 29.833,38.211 29.833 C 36.752 29.833,36.110 29.758,35.377 29.500 C 34.855 29.317,34.276 29.171,34.089 29.177 C 33.903 29.183,34.237 29.353,34.833 29.554 M116.833 29.510 C 116.833 29.607,116.900 29.645,116.982 29.594 C 117.186 29.469,117.343 30.167,117.225 30.672 C 117.129 31.082,117.130 31.082,117.392 30.731 C 117.609 30.438,117.621 30.288,117.457 29.856 C 117.272 29.365,116.833 29.122,116.833 29.510 M90.833 29.907 C 90.833 30.379,90.975 30.500,91.354 30.354 C 91.558 30.276,91.590 30.156,91.485 29.875 C 91.293 29.364,90.833 29.386,90.833 29.907 M147.281 29.897 C 147.229 30.031,147.024 30.165,146.826 30.195 C 146.468 30.249,146.469 30.255,146.899 30.717 C 147.452 31.311,147.512 32.393,147.006 32.663 C 146.586 32.888,145.647 33.000,145.764 32.811 C 145.813 32.732,145.774 32.667,145.677 32.667 C 145.579 32.667,145.500 32.779,145.500 32.917 C 145.500 33.097,145.685 33.167,146.167 33.167 C 146.533 33.167,146.833 33.100,146.833 33.019 C 146.833 32.938,146.983 32.833,147.167 32.785 C 147.525 32.691,147.631 31.467,147.343 30.750 C 147.269 30.567,147.280 30.279,147.368 30.111 C 147.455 29.942,147.493 29.770,147.451 29.729 C 147.409 29.687,147.332 29.762,147.281 29.897 M21.855 30.057 C 21.686 30.261,21.349 30.333,20.569 30.333 C 19.417 30.333,19.167 30.525,19.167 31.409 C 19.167 31.711,19.038 31.899,18.736 32.037 L 18.306 32.233 18.681 32.371 C 19.168 32.551,19.313 32.387,19.466 31.488 L 19.591 30.750 20.782 30.667 C 22.073 30.576,22.225 30.509,22.140 30.070 C 22.087 29.802,22.067 29.801,21.855 30.057 M116.506 30.076 C 116.347 30.268,116.357 30.393,116.553 30.674 C 116.792 31.015,116.801 31.006,116.784 30.431 C 116.765 29.745,116.772 29.755,116.506 30.076 M122.506 30.076 C 122.347 30.268,122.357 30.393,122.553 30.674 C 122.792 31.015,122.801 31.006,122.784 30.431 C 122.765 29.745,122.772 29.755,122.506 30.076 M147.896 30.989 C 147.884 31.591,147.894 32.008,147.917 31.917 C 147.940 31.825,148.054 31.436,148.169 31.053 C 148.344 30.474,148.340 30.316,148.148 30.125 C 147.951 29.929,147.914 30.056,147.896 30.989 M123.458 30.494 C 123.298 30.650,123.168 30.847,123.169 30.931 C 123.171 31.015,123.227 31.002,123.294 30.902 C 123.362 30.803,123.558 30.645,123.730 30.550 C 123.902 30.456,123.977 30.341,123.896 30.294 C 123.816 30.248,123.619 30.337,123.458 30.494 M143.203 30.359 C 143.229 30.483,143.325 30.637,143.417 30.703 C 143.525 30.781,143.510 30.942,143.374 31.162 C 143.250 31.362,143.233 31.500,143.332 31.500 C 143.424 31.500,143.500 31.425,143.500 31.333 C 143.500 31.242,143.575 31.167,143.667 31.167 C 143.758 31.167,143.833 31.317,143.833 31.500 C 143.833 31.732,143.722 31.833,143.468 31.833 C 143.115 31.833,143.114 31.841,143.420 32.065 C 143.692 32.264,143.705 32.336,143.512 32.569 C 143.317 32.804,143.324 32.827,143.560 32.736 C 143.746 32.665,143.833 32.720,143.833 32.909 C 143.833 33.061,143.909 33.140,144.000 33.083 C 144.107 33.017,144.111 32.874,144.012 32.689 C 143.926 32.529,143.892 32.102,143.935 31.741 C 144.016 31.060,143.747 30.330,143.370 30.206 C 143.252 30.167,143.177 30.236,143.203 30.359 M28.681 30.566 C 28.540 30.736,28.518 31.634,28.601 33.865 C 28.690 36.250,28.667 37.022,28.497 37.340 C 28.298 37.713,28.303 37.730,28.553 37.524 C 28.787 37.331,28.833 36.822,28.872 34.024 L 28.917 30.750 30.667 30.750 L 32.417 30.750 32.500 34.048 C 32.568 36.734,32.630 37.375,32.833 37.504 C 33.230 37.754,33.432 37.692,33.074 37.430 C 32.777 37.213,32.746 36.940,32.703 34.139 C 32.639 29.930,32.853 30.333,30.684 30.333 C 29.337 30.333,28.825 30.393,28.681 30.566 M48.867 30.533 C 48.599 30.801,48.615 31.185,48.912 31.609 C 49.473 32.410,51.667 36.940,51.667 37.298 C 51.667 37.514,51.740 37.641,51.833 37.583 C 52.163 37.380,51.500 35.392,51.000 35.083 C 50.908 35.027,50.833 34.845,50.833 34.679 C 50.833 34.514,50.683 34.188,50.500 33.955 C 50.317 33.721,50.167 33.423,50.167 33.291 C 50.167 33.159,50.017 32.916,49.833 32.750 C 49.650 32.584,49.500 32.320,49.500 32.163 C 49.500 32.007,49.345 31.681,49.156 31.441 C 48.621 30.761,48.847 30.667,51.004 30.667 C 52.886 30.667,52.999 30.686,53.187 31.038 C 53.296 31.243,53.487 31.510,53.610 31.633 C 53.733 31.756,53.833 32.009,53.833 32.194 C 53.833 32.379,53.983 32.721,54.167 32.955 C 54.350 33.188,54.500 33.499,54.501 33.647 C 54.502 33.796,54.651 34.142,54.833 34.417 C 55.015 34.692,55.165 35.071,55.166 35.260 C 55.169 36.264,56.306 36.353,56.683 35.378 C 56.781 35.124,57.005 34.639,57.180 34.300 C 57.356 33.961,57.500 33.561,57.500 33.410 C 57.500 33.259,57.650 32.945,57.833 32.712 C 58.017 32.479,58.167 32.125,58.167 31.925 C 58.167 30.983,58.967 30.631,60.970 30.693 C 62.941 30.754,63.190 30.835,62.807 31.291 C 62.672 31.452,62.317 32.071,62.018 32.667 C 61.156 34.387,60.435 35.716,60.122 36.162 C 59.808 36.610,59.740 37.256,59.990 37.410 C 60.076 37.464,60.136 37.372,60.124 37.207 C 60.101 36.897,60.353 36.360,61.596 34.083 C 61.996 33.350,62.473 32.431,62.656 32.042 C 62.839 31.652,63.066 31.333,63.161 31.333 C 63.398 31.333,63.379 30.779,63.133 30.533 C 62.268 29.668,58.000 30.538,58.000 31.579 C 58.000 31.728,57.850 32.147,57.667 32.509 C 56.879 34.063,56.709 34.441,56.606 34.870 C 56.490 35.351,55.886 35.793,55.668 35.557 C 55.597 35.480,55.146 34.517,54.666 33.417 C 54.186 32.317,53.611 31.173,53.388 30.875 L 52.983 30.333 51.025 30.333 C 49.724 30.333,49.000 30.400,48.867 30.533 M96.846 30.568 C 96.718 30.722,96.690 31.093,96.764 31.650 C 96.841 32.231,96.810 32.577,96.668 32.749 C 96.499 32.952,96.503 33.000,96.692 33.000 C 96.846 33.000,96.995 32.626,97.136 31.883 C 97.252 31.269,97.429 30.669,97.528 30.550 C 97.665 30.384,97.629 30.333,97.374 30.333 C 97.191 30.333,96.953 30.439,96.846 30.568 M128.857 30.554 C 128.738 30.698,128.712 31.180,128.781 31.929 L 128.889 33.082 129.120 31.916 C 129.250 31.263,129.472 30.658,129.624 30.542 C 129.864 30.358,129.846 30.333,129.469 30.333 C 129.233 30.333,128.958 30.433,128.857 30.554 M136.191 30.554 C 136.072 30.698,136.045 31.180,136.115 31.929 L 136.222 33.082 136.458 31.917 C 136.587 31.276,136.771 30.658,136.867 30.543 C 136.997 30.387,136.956 30.333,136.707 30.333 C 136.524 30.333,136.292 30.433,136.191 30.554 M93.594 30.650 C 93.368 31.014,94.064 31.477,94.919 31.531 C 95.728 31.582,95.751 31.598,95.804 32.142 C 95.839 32.508,95.795 32.663,95.679 32.591 C 95.580 32.530,95.500 32.562,95.500 32.662 C 95.500 32.864,95.965 33.090,96.101 32.954 C 96.214 32.842,96.018 31.799,95.826 31.489 C 95.731 31.336,95.394 31.250,94.886 31.250 C 94.223 31.250,94.063 31.187,93.900 30.860 C 93.783 30.627,93.660 30.542,93.594 30.650 M97.098 31.291 C 96.916 31.473,96.791 31.183,96.922 30.882 C 97.046 30.597,97.055 30.597,97.124 30.888 C 97.164 31.056,97.152 31.237,97.098 31.291 M129.098 31.291 C 128.916 31.473,128.791 31.183,128.922 30.882 C 129.046 30.597,129.055 30.597,129.124 30.888 C 129.164 31.056,129.152 31.237,129.098 31.291 M136.431 31.291 C 136.249 31.473,136.124 31.183,136.255 30.882 C 136.379 30.597,136.388 30.597,136.457 30.888 C 136.497 31.056,136.485 31.237,136.431 31.291 M100.696 31.181 C 100.499 31.498,100.510 31.519,100.823 31.420 C 101.070 31.341,101.167 31.384,101.167 31.572 C 101.167 31.716,101.035 31.839,100.875 31.846 C 100.692 31.855,100.663 31.892,100.797 31.946 C 101.202 32.108,101.501 31.685,101.297 31.237 C 101.072 30.743,100.975 30.734,100.696 31.181 M132.030 31.181 C 131.832 31.498,131.843 31.519,132.156 31.420 C 132.404 31.341,132.500 31.384,132.500 31.572 C 132.500 31.716,132.369 31.839,132.208 31.846 C 132.025 31.855,131.996 31.892,132.131 31.946 C 132.536 32.108,132.835 31.685,132.631 31.237 C 132.405 30.743,132.309 30.734,132.030 31.181 M140.030 31.181 C 139.832 31.498,139.843 31.519,140.156 31.420 C 140.404 31.341,140.500 31.384,140.500 31.572 C 140.500 31.716,140.369 31.839,140.208 31.846 C 140.025 31.855,139.996 31.892,140.131 31.946 C 140.536 32.108,140.835 31.685,140.631 31.237 C 140.405 30.743,140.309 30.734,140.030 31.181 M99.290 31.188 C 98.899 31.407,98.900 32.171,99.292 32.155 C 99.879 32.131,100.308 31.858,99.778 31.845 C 99.475 31.838,99.332 31.759,99.379 31.625 C 99.420 31.510,99.628 31.437,99.841 31.462 C 100.055 31.487,100.197 31.484,100.156 31.456 C 100.116 31.429,99.970 31.320,99.832 31.216 C 99.662 31.087,99.485 31.078,99.290 31.188 M130.623 31.188 C 130.232 31.407,130.234 32.171,130.625 32.155 C 131.213 32.131,131.641 31.858,131.111 31.845 C 130.808 31.838,130.665 31.759,130.713 31.625 C 130.753 31.510,130.961 31.437,131.175 31.462 C 131.388 31.487,131.530 31.484,131.490 31.456 C 131.450 31.429,131.303 31.320,131.165 31.216 C 130.995 31.087,130.819 31.078,130.623 31.188 M138.623 31.188 C 138.232 31.407,138.234 32.171,138.625 32.155 C 139.213 32.131,139.641 31.858,139.111 31.845 C 138.808 31.838,138.665 31.759,138.713 31.625 C 138.753 31.510,138.961 31.437,139.175 31.462 C 139.388 31.487,139.530 31.484,139.490 31.456 C 139.450 31.429,139.303 31.320,139.165 31.216 C 138.995 31.087,138.819 31.078,138.623 31.188 M12.067 31.565 C 12.017 31.697,12.007 32.018,12.046 32.278 C 12.105 32.675,12.121 32.651,12.142 32.125 L 12.167 31.500 14.896 31.500 C 17.532 31.500,17.636 31.513,17.910 31.875 C 18.192 32.249,18.192 32.248,17.952 31.833 C 17.653 31.318,12.256 31.072,12.067 31.565 M104.833 31.500 C 104.833 31.592,104.908 31.667,105.000 31.667 C 105.092 31.667,105.167 31.779,105.167 31.917 C 105.167 32.054,105.282 32.167,105.422 32.167 C 105.562 32.167,105.745 32.335,105.828 32.542 C 105.973 32.902,105.979 32.899,105.989 32.458 C 105.996 32.158,105.914 32.000,105.751 32.000 C 105.615 32.000,105.409 31.850,105.295 31.667 C 105.073 31.311,104.833 31.225,104.833 31.500 M106.288 31.434 C 106.221 31.501,106.167 31.671,106.167 31.811 C 106.167 31.999,106.216 32.017,106.352 31.881 C 106.454 31.779,106.509 31.610,106.474 31.504 C 106.438 31.399,106.355 31.367,106.288 31.434 M148.833 31.443 C 148.833 31.504,149.047 31.748,149.309 31.985 C 149.571 32.222,149.828 32.529,149.879 32.667 C 149.934 32.811,149.979 32.724,149.987 32.458 C 149.995 32.157,149.915 32.000,149.751 32.000 C 149.615 32.000,149.409 31.850,149.295 31.667 C 149.093 31.344,148.833 31.218,148.833 31.443 M150.288 31.434 C 150.221 31.501,150.167 31.671,150.167 31.811 C 150.167 31.999,150.216 32.017,150.352 31.881 C 150.454 31.779,150.509 31.610,150.474 31.504 C 150.438 31.399,150.355 31.367,150.288 31.434 M93.350 31.583 C 93.372 32.126,93.578 32.270,94.000 32.036 C 94.388 31.822,94.391 31.811,94.041 31.887 C 93.802 31.939,93.608 31.869,93.505 31.693 C 93.416 31.541,93.346 31.492,93.350 31.583 M110.167 31.917 C 110.167 32.146,110.242 32.333,110.333 32.333 C 110.425 32.333,110.500 32.146,110.500 31.917 C 110.500 31.688,110.425 31.500,110.333 31.500 C 110.242 31.500,110.167 31.688,110.167 31.917 M142.333 31.745 C 142.333 31.894,142.431 31.952,142.583 31.894 C 142.721 31.841,142.833 31.731,142.833 31.649 C 142.833 31.567,142.721 31.500,142.583 31.500 C 142.446 31.500,142.333 31.610,142.333 31.745 M144.833 31.750 C 144.833 31.887,144.908 32.000,145.000 32.000 C 145.092 32.000,145.167 31.887,145.167 31.750 C 145.167 31.613,145.092 31.500,145.000 31.500 C 144.908 31.500,144.833 31.613,144.833 31.750 M104.853 31.989 C 104.817 32.430,105.529 33.704,105.710 33.523 C 105.824 33.410,105.803 33.272,105.648 33.100 C 105.153 32.554,105.031 32.373,104.953 32.067 C 104.908 31.891,104.863 31.856,104.853 31.989 M148.853 31.989 C 148.817 32.430,149.529 33.704,149.710 33.523 C 149.824 33.410,149.803 33.272,149.648 33.100 C 149.153 32.554,149.031 32.373,148.953 32.067 C 148.908 31.891,148.863 31.856,148.853 31.989 M26.783 32.823 C 26.377 33.510,26.439 33.688,26.857 33.035 C 27.050 32.733,27.176 32.454,27.137 32.415 C 27.098 32.376,26.939 32.559,26.783 32.823 M111.428 32.613 C 111.365 32.779,111.438 32.999,111.610 33.155 C 111.876 33.396,111.881 33.394,111.679 33.125 C 111.473 32.852,111.545 32.755,111.903 32.823 C 111.987 32.839,111.960 32.735,111.841 32.593 C 111.573 32.270,111.560 32.271,111.428 32.613 M118.762 32.613 C 118.698 32.779,118.771 32.999,118.943 33.155 C 119.209 33.396,119.215 33.394,119.012 33.125 C 118.806 32.852,118.878 32.755,119.237 32.823 C 119.321 32.839,119.293 32.735,119.174 32.593 C 118.907 32.270,118.893 32.271,118.762 32.613 M124.762 32.613 C 124.698 32.779,124.771 32.999,124.943 33.155 C 125.209 33.396,125.215 33.394,125.012 33.125 C 124.806 32.852,124.878 32.755,125.237 32.823 C 125.321 32.839,125.293 32.735,125.174 32.593 C 124.907 32.270,124.893 32.271,124.762 32.613 M112.750 32.667 C 112.693 32.758,112.764 32.833,112.907 32.833 C 113.050 32.833,113.167 32.923,113.167 33.033 C 113.167 33.180,113.216 33.184,113.352 33.048 C 113.454 32.946,113.487 32.781,113.426 32.681 C 113.285 32.454,112.887 32.446,112.750 32.667 M120.083 32.667 C 120.027 32.758,120.097 32.833,120.240 32.833 C 120.383 32.833,120.500 32.923,120.500 33.033 C 120.500 33.180,120.549 33.184,120.685 33.048 C 120.787 32.946,120.821 32.781,120.759 32.681 C 120.619 32.454,120.220 32.446,120.083 32.667 M123.212 32.832 C 123.226 33.016,123.334 33.167,123.452 33.167 C 123.731 33.167,123.724 33.033,123.427 32.736 C 123.218 32.528,123.190 32.540,123.212 32.832 M126.083 32.667 C 126.027 32.758,126.097 32.833,126.240 32.833 C 126.383 32.833,126.500 32.923,126.500 33.033 C 126.500 33.180,126.549 33.184,126.685 33.048 C 126.787 32.946,126.821 32.781,126.759 32.681 C 126.619 32.454,126.220 32.446,126.083 32.667 M141.941 32.747 C 141.812 33.083,142.302 33.297,142.917 33.174 L 143.417 33.074 142.849 32.787 C 142.157 32.437,142.062 32.433,141.941 32.747 M92.833 32.917 C 92.833 33.054,92.908 33.167,93.000 33.167 C 93.092 33.167,93.167 33.054,93.167 32.917 C 93.167 32.779,93.092 32.667,93.000 32.667 C 92.908 32.667,92.833 32.779,92.833 32.917 M99.500 32.917 C 99.500 33.097,99.685 33.167,100.167 33.167 C 100.588 33.167,100.834 33.090,100.836 32.958 C 100.838 32.817,100.895 32.831,101.015 33.000 C 101.172 33.222,101.184 33.222,101.117 33.000 C 101.076 32.862,100.951 32.771,100.839 32.797 C 100.259 32.930,99.685 32.938,99.764 32.811 C 99.813 32.732,99.774 32.667,99.677 32.667 C 99.579 32.667,99.500 32.779,99.500 32.917 M108.167 32.917 C 108.167 33.097,108.352 33.167,108.833 33.167 C 109.200 33.167,109.500 33.092,109.500 33.000 C 109.500 32.908,109.579 32.833,109.677 32.833 C 109.774 32.833,109.799 32.920,109.734 33.026 C 109.660 33.146,109.688 33.173,109.810 33.098 C 110.122 32.905,109.831 32.627,109.440 32.743 C 108.820 32.926,108.339 32.958,108.431 32.810 C 108.480 32.731,108.440 32.667,108.343 32.667 C 108.246 32.667,108.167 32.779,108.167 32.917 M130.833 32.917 C 130.833 33.097,131.019 33.167,131.500 33.167 C 131.921 33.167,132.168 33.090,132.169 32.958 C 132.171 32.817,132.229 32.831,132.349 33.000 C 132.506 33.222,132.517 33.222,132.450 33.000 C 132.409 32.862,132.284 32.771,132.172 32.797 C 131.592 32.930,131.019 32.938,131.097 32.811 C 131.146 32.732,131.107 32.667,131.010 32.667 C 130.913 32.667,130.833 32.779,130.833 32.917 M138.833 32.917 C 138.833 33.097,139.019 33.167,139.500 33.167 C 139.921 33.167,140.168 33.090,140.169 32.958 C 140.171 32.817,140.229 32.831,140.349 33.000 C 140.506 33.222,140.517 33.222,140.450 33.000 C 140.409 32.862,140.284 32.771,140.172 32.797 C 139.592 32.930,139.019 32.938,139.097 32.811 C 139.146 32.732,139.107 32.667,139.010 32.667 C 138.913 32.667,138.833 32.779,138.833 32.917 M12.172 33.224 C 12.169 33.301,12.317 33.555,12.500 33.788 C 12.683 34.021,12.833 34.135,12.833 34.041 C 12.833 33.833,12.180 33.026,12.172 33.224 M25.748 34.241 C 25.106 34.846,25.080 35.153,25.606 35.912 C 25.731 36.093,25.833 36.366,25.833 36.519 C 25.833 36.879,26.434 37.620,26.596 37.459 C 26.664 37.391,26.602 37.204,26.457 37.043 C 25.511 35.989,25.455 34.585,26.331 33.880 C 26.470 33.769,26.532 33.675,26.470 33.672 C 26.408 33.669,26.083 33.925,25.748 34.241 M13.413 34.829 C 13.577 35.010,13.869 35.206,14.064 35.265 C 14.258 35.324,14.544 35.484,14.699 35.620 C 14.854 35.756,15.079 35.828,15.199 35.780 C 15.340 35.724,15.315 35.688,15.125 35.680 C 14.965 35.673,14.833 35.597,14.833 35.513 C 14.833 35.428,14.566 35.271,14.238 35.163 C 13.911 35.055,13.603 34.861,13.554 34.733 C 13.505 34.605,13.386 34.500,13.290 34.500 C 13.194 34.500,13.249 34.648,13.413 34.829 M16.750 36.168 C 17.392 36.339,18.126 36.523,18.382 36.577 C 18.973 36.703,19.156 37.140,18.745 37.441 C 18.575 37.565,18.511 37.667,18.603 37.667 C 19.690 37.667,19.525 36.454,18.417 36.304 C 17.958 36.242,17.321 36.111,17.001 36.012 C 16.681 35.914,16.231 35.839,16.001 35.846 C 15.771 35.853,16.108 35.998,16.750 36.168 " stroke="none" fill="#3eaae0" fill-rule="evenodd"></path></g></svg>